<svg height="48" id="Livello_1" viewBox="0 0 48 48" width="48" xmlns="http://www.w3.org/2000/svg"><defs><style>.cls-1{fill:#5eb254;}.cls-2{fill:#539649;}.cls-3{fill:#467a3d;}.cls-4{fill:#fff;}</style></defs><title></title><g id="Shopping"><path class="cls-1" d="M47.43,19.05,38.33,3.884A8,8,0,0,0,31.47,0H16.53A8,8,0,0,0,9.67,3.884L.57,19.05A4,4,0,0,0,0,21.108V40a8,8,0,0,0,8,8H40a8,8,0,0,0,8-8V21.108A4,4,0,0,0,47.43,19.05ZM22,13a3,3,0,1,1,3-3A3,3,0,0,1,22,13Z"></path><path class="cls-2" d="M47.43,19.05,38.33,3.884A8,8,0,0,0,31.47,0h-4a8,8,0,0,1,6.86,3.884l9.1,15.166A4,4,0,0,1,44,21.108V40a8,8,0,0,1-8,8h4a8,8,0,0,0,8-8V21.108A4,4,0,0,0,47.43,19.05Z"></path><path class="cls-3" d="M22,10a2.987,2.987,0,0,1,1.5-2.584A2.968,2.968,0,0,0,22,7a3,3,0,0,0,0,6,2.968,2.968,0,0,0,1.5-.416A2.987,2.987,0,0,1,22,10Z"></path><path class="cls-2" d="M22,4a6,6,0,1,0,6,6A6,6,0,0,0,22,4Zm0,8a2,2,0,1,1,2-2A2,2,0,0,1,22,12Z"></path><path class="cls-4" d="M14,27.333h4a2,2,0,0,0,0-4H16V22a2,2,0,0,0-4,0v1.644a5.422,5.422,0,0,0-4,5.023C8,31.607,10.691,34,14,34c1.179,0,2,.7,2,1.333s-.821,1.334-2,1.334H10a2,2,0,0,0,0,4h2V42a2,2,0,0,0,4,0V40.356a5.422,5.422,0,0,0,4-5.023C20,32.393,17.309,30,14,30c-1.179,0-2-.7-2-1.333S12.821,27.333,14,27.333Z"></path><path class="cls-4" d="M30,30c-1.179,0-2-.7-2-1.333s.821-1.334,2-1.334h4a2,2,0,0,0,0-4H32V22a2,2,0,0,0-4,0v1.644a5.422,5.422,0,0,0-4,5.023C24,31.607,26.691,34,30,34c1.179,0,2,.7,2,1.333s-.821,1.334-2,1.334H26a2,2,0,0,0,0,4h2V42a2,2,0,0,0,4,0V40.356a5.422,5.422,0,0,0,4-5.023C36,32.393,33.309,30,30,30Z"></path></g></svg>