<svg id="Layer_5" style="enable-background:new 0 0 46 62;" version="1.1" viewBox="0 0 46 62" xml:space="preserve" xmlns="http://www.w3.org/2000/svg" xmlns:xlink="http://www.w3.org/1999/xlink"><g><g><g><path d="M31,13h-2.37c-0.81,0-1.57-0.23-2.23-0.64c-0.66-0.4-1.21-0.99-1.57-1.71     C24.32,9.64,23.29,9,22.15,9c-1.28,0-2.42,0.82-2.83,2.04L19,12l-0.38-0.38c-0.4-0.4-0.94-0.62-1.5-0.62     C15.95,11,15,11.95,15,13.12v5.92c0,2.46,1.29,4.73,3.4,6l1.11,0.67c0.31,0.18,0.49,0.5,0.49,0.86V29l-5.13,0.85     C12.55,28.45,11,25.91,11,23V13c0-3.32,1.34-6.32,3.51-8.49S19.68,1,23,1c6.63,0,12,5.37,12,12v10c0,2.55-1.2,4.83-3.06,6.29     c-0.34,0.1-0.68,0.22-1,0.36v-0.01c-0.67-0.2-1.38-0.34-2.11-0.4L26,29v-2.43c0-0.36,0.18-0.68,0.49-0.86l1.11-0.67     c2.11-1.27,3.4-3.54,3.4-6V13z" style="fill:#FCD770;"></path></g><g><path d="M32,59.4V61H14v-1.6c0-2.07,0.35-4.11,1.03-6.04C15.7,51.44,16.7,49.62,18,48h6v3     c0,3.31,2.69,6,6,6h1.84C31.95,57.79,32,58.6,32,59.4z" style="fill:#5CD6B3;"></path></g><g><path d="M29.8,30.25c-1.25,0.8-2.28,1.95-2.93,3.36L26,35.5h-0.02c-0.08-0.65-0.37-1.23-0.81-1.67     C24.68,33.34,24,33.02,23.25,33C25,31,26,29,26,29l2.83,0.24c0.73,0.06,1.44,0.2,2.11,0.4v0.01     C30.54,29.82,30.16,30.02,29.8,30.25z" style="fill:#5CD6B3;"></path></g><g><path d="M20.72,33.96c-0.45,0.5-0.72,1.15-0.72,1.87v0.59c0,0.38,0.08,0.76,0.23,1.11l3.77,8.8V48h-6     l-1.59-3.7C15.48,42.12,15,39.78,15,37.41c0-0.17,0.01-0.34,0.05-0.51c0.1-0.71,0.43-1.38,0.95-1.9c0.64-0.64,1.51-1,2.41-1h1.53     c0.26,0,0.52-0.02,0.77-0.05L20.72,33.96z" style="fill:#5CD6B3;"></path></g><g><path d="M24.78,48.15C25.52,49.88,27.22,51,29.1,51c0.89,0,1.74-0.25,2.47-0.7     c0.73-0.46,1.33-1.1,1.73-1.9L34,47h11v4c0,3.31-2.69,6-6,6h-7.16H30c-3.31,0-6-2.69-6-6v-3v-1.67L24.78,48.15z" style="fill:#FF826E;"></path></g><g><path d="M45,45v2H34l2-4h6h1C44.1,43,45,43.9,45,45z" style="fill:#FC6E51;"></path></g><g><path d="M25.17,37.83c0.53-0.53,0.83-1.25,0.83-2c0-0.11-0.01-0.22-0.02-0.33H26l0.87-1.89     c0.65-1.41,1.68-2.56,2.93-3.36c0.36-0.23,0.74-0.43,1.14-0.6c0.32-0.14,0.66-0.26,1-0.36c0.68-0.19,1.4-0.29,2.13-0.29     c4.38,0,7.93,3.55,7.93,7.93V43h-6l1.25-2.5c0.49-0.99,0.75-2.07,0.75-3.17c0-1.19-0.48-2.28-1.27-3.06     C35.95,33.48,34.86,33,33.67,33c-0.81,0-1.6,0.23-2.27,0.65c-0.67,0.41-1.23,1.01-1.6,1.74l-2.47,4.94L25,38L25.17,37.83z" style="fill:#969FAA;"></path></g><g><path d="M23.25,33c0.75,0.02,1.43,0.34,1.92,0.83c0.44,0.44,0.73,1.02,0.81,1.67     c0.01,0.11,0.02,0.22,0.02,0.33c0,0.75-0.3,1.47-0.83,2L25,38l2.33,2.33l2.47-4.94c0.37-0.73,0.93-1.33,1.6-1.74     c0.67-0.42,1.46-0.65,2.27-0.65c1.19,0,2.28,0.48,3.06,1.27c0.79,0.78,1.27,1.87,1.27,3.06c0,1.1-0.26,2.18-0.75,3.17L36,43l-2,4     l-0.7,1.4c-0.4,0.8-1,1.44-1.73,1.9c-0.73,0.45-1.58,0.7-2.47,0.7c-1.88,0-3.58-1.12-4.32-2.85L24,46.33l-3.77-8.8     C20.08,37.18,20,36.8,20,36.42v-0.59c0-0.72,0.27-1.37,0.72-1.87c0.51-0.59,1.27-0.96,2.11-0.96h0.34C23.2,33,23.22,33,23.25,33z     " style="fill:#F0D0B4;"></path></g><g><path d="M8,31l6.87-1.15L20,29v-2.43c0-0.36-0.18-0.68-0.49-0.86l-1.11-0.67c-2.11-1.27-3.4-3.54-3.4-6     v-5.92c0-1.17,0.95-2.12,2.12-2.12c0.56,0,1.1,0.22,1.5,0.62L19,12l0.32-0.96C19.73,9.82,20.87,9,22.15,9     c1.14,0,2.17,0.64,2.68,1.65c0.36,0.72,0.91,1.31,1.57,1.71c0.66,0.41,1.42,0.64,2.23,0.64H31v6.04c0,2.46-1.29,4.73-3.4,6     l-1.11,0.67c-0.31,0.18-0.49,0.5-0.49,0.86V29c0,0-1,2-2.75,4c-0.03,0-0.05,0-0.08,0h-0.34c-0.84,0-1.6,0.37-2.11,0.96     l-0.01-0.01C20.46,33.98,20.2,34,19.94,34h-1.53c-0.9,0-1.77,0.36-2.41,1c-0.52,0.52-0.85,1.19-0.95,1.9h-0.01l-5.39,0.98     C9.22,37.96,8.78,38,8.34,38C4.29,38,1,34.71,1,30.66V17.83C1,16.27,2.27,15,3.83,15h0.34c0.78,0,1.49,0.32,2,0.83     S7,17.05,7,17.83c0,0.75-0.3,1.47-0.83,2L6,20L8,31z" style="fill:#F0D0B4;"></path></g></g><g><path d="M22.447,20.895l1.105-0.553c0.478-0.239,0.834-0.65,1.003-1.157s0.13-1.049-0.108-1.527L24,16.764V15h-2v2    c0,0.155,0.036,0.309,0.105,0.447l0.553,1.105l-1.105,0.553L22.447,20.895z"></path><path d="M26.6,22.8l-1.201-1.6c-1.392,1.046-3.406,1.046-4.799,0l-1.2,1.6C20.445,23.585,21.69,24,23,24    C24.31,24,25.555,23.585,26.6,22.8z"></path><path d="M43,42v-5.072c0-4.791-3.796-8.702-8.538-8.908C35.451,26.555,36,24.823,36,23V13c0-7.168-5.832-13-13-13S10,5.832,10,13    v10c0,2.376,0.909,4.584,2.505,6.235l-3.697,0.616l-1.732-9.528C7.674,19.63,8,18.754,8,17.829C8,15.717,6.283,14,4.171,14H3.829    C1.717,14,0,15.717,0,17.829v12.833C0,35.259,3.741,39,8.338,39c0.499,0,1-0.045,1.491-0.134l4.205-0.765    c0.084,2.273,0.559,4.489,1.459,6.589l1.355,3.163C14.363,51.172,13,55.25,13,59.403V62h20v-2.597    c0-0.466-0.021-0.935-0.055-1.403H39c3.86,0,7-3.14,7-7v-6C46,43.346,44.654,42,43,42z M44,45v1h-8.382l1-2H43    C43.551,44,44,44.449,44,45z M21.147,37.14C21.05,36.911,21,36.669,21,36.419v-0.591C21,34.82,21.82,34,22.829,34h0.343    C24.18,34,25,34.82,25,35.829c0,0.488-0.19,0.947-0.536,1.293L23.586,38L29,43.414V46h2v-2.764l2.895-5.789l-1.789-0.895    l-2.38,4.759l-1.176-1.176l2.148-4.297C31.266,34.705,32.406,34,33.674,34C35.508,34,37,35.492,37,37.326    c0,0.94-0.222,1.882-0.643,2.724l-3.953,7.907C31.773,49.217,30.506,50,29.097,50c-1.481,0-2.815-0.879-3.398-2.241L21.147,37.14z     M26.564,30.05l1.662,0.139c-0.942,0.815-1.721,1.828-2.26,2.997l-0.013,0.029c-0.285-0.303-0.62-0.551-0.99-0.748    C25.708,31.48,26.249,30.604,26.564,30.05z M41,36.928V42h-3.382l0.528-1.056C38.705,39.827,39,38.576,39,37.326    C39,34.389,36.611,32,33.674,32c-2.03,0-3.856,1.128-4.764,2.944l-1.85,3.701l-0.698-0.698C26.777,37.325,27,36.594,27,35.829    c0-0.031-0.008-0.059-0.009-0.09l0.791-1.714C28.911,31.58,31.38,30,34.072,30C37.892,30,41,33.108,41,36.928z M12,23V13    c0-6.065,4.935-11,11-11s11,4.935,11,11v10c0,2.113-0.937,4.073-2.568,5.41c-0.177,0.055-0.347,0.129-0.52,0.195    c-0.653-0.178-1.321-0.31-1.998-0.366L27,28.08v-1.514l1.116-0.67C30.512,24.459,32,21.831,32,19.037L32.001,10l-2-0.001l0,2    h-1.375c-1.238,0-2.352-0.688-2.905-1.796C25.041,8.845,23.674,8,22.153,8c-1.576,0-2.985,0.921-3.628,2.332    C18.095,10.115,17.617,10,17.122,10c-1.721,0-3.121,1.4-3.121,3.121L14,19.036c0,2.794,1.488,5.423,3.884,6.861L19,26.566l0,1.587    l-3.893,0.649C13.161,27.497,12,25.36,12,23z M15.293,34.293c-0.495,0.495-0.839,1.092-1.052,1.738l-4.769,0.867    C9.099,36.966,8.718,37,8.338,37C4.843,37,2,34.157,2,30.662V17.829C2,16.82,2.82,16,3.829,16h0.343C5.18,16,6,16.82,6,17.829    c0,0.488-0.19,0.947-0.536,1.293l-0.542,0.542L6.97,30.927l-0.919,2.757l1.897,0.632l0.809-2.429L21,29.847l0-3.281    c0-0.698-0.372-1.355-0.971-1.714l-1.116-0.669C17.116,23.104,16,21.132,16,19.036l0.001-5.916c0-0.618,0.503-1.121,1.121-1.121    c0.295,0,0.584,0.12,0.792,0.328l1.523,1.523l0.831-2.492C20.539,10.546,21.296,10,22.153,10c0.758,0,1.439,0.421,1.778,1.099    C24.826,12.888,26.625,14,28.625,14H30l0,5.037c0,2.095-1.116,4.066-2.913,5.144l-1.118,0.671C25.371,25.212,25,25.869,25,26.566    v2.184c-0.26,0.481-1.04,1.835-2.222,3.255c-0.953,0.013-1.814,0.382-2.478,0.971C20.179,32.985,20.06,33,19.938,33h-1.523    C17.235,33,16.126,33.459,15.293,34.293z M16,37.414c0-0.635,0.258-1.258,0.707-1.707S17.779,35,18.414,35h0.682    C19.037,35.268,19,35.543,19,35.829v0.591c0,0.522,0.104,1.029,0.31,1.508L23,46.539V47h-4.341l-1.328-3.098    C16.448,41.84,16,39.657,16,37.414z M31,59.403V60H15v-0.597c0-3.747,1.249-7.418,3.506-10.403H23v2c0,3.86,3.14,7,7,7h0.936    C30.974,58.468,31,58.937,31,59.403z M39,56h-9c-2.757,0-5-2.243-5-5v-0.758C26.054,51.339,27.516,52,29.097,52    c2.171,0,4.124-1.207,5.096-3.149L34.618,48H44v3C44,53.757,41.757,56,39,56z"></path><circle cx="19" cy="15" r="1"></circle><circle cx="27" cy="15" r="1"></circle></g></g></svg>