<svg xmlns="http://www.w3.org/2000/svg" xmlns:xlink="http://www.w3.org/1999/xlink" width="287.372" height="290.933" viewBox="0 0 287.372 290.933">
  <defs>
    <clipPath id="clip-path">
      <path id="Path_2048" data-name="Path 2048" d="M196.69,33.368l-17.7-.082a4.4,4.4,0,0,0-4.318,4.475l-.014,3.211a4.4,4.4,0,0,1-4.318,4.475l-34.51-.16a4.4,4.4,0,0,1-4.28-4.514l.014-3.211a4.4,4.4,0,0,0-4.281-4.514l-6.227-.029-15.5-.071A13.931,13.931,0,0,0,91.563,46.819l-.945,223.45a13.931,13.931,0,0,0,13.866,13.99l91.132.421a13.931,13.931,0,0,0,13.994-13.872l.945-223.451A13.932,13.932,0,0,0,196.69,33.368" transform="translate(-90.618 -32.947)" fill="#f5f5f5"/>
    </clipPath>
    <clipPath id="clip-path-2">
      <rect id="Rectangle_565" data-name="Rectangle 565" width="27.196" height="11.125" fill="none"/>
    </clipPath>
    <clipPath id="clip-path-3">
      <rect id="Rectangle_566" data-name="Rectangle 566" width="19.94" height="19.327" fill="none"/>
    </clipPath>
    <clipPath id="clip-path-4">
      <rect id="Rectangle_568" data-name="Rectangle 568" width="32.711" height="20.492" fill="none"/>
    </clipPath>
    <clipPath id="clip-path-5">
      <rect id="Rectangle_569" data-name="Rectangle 569" width="13.903" height="17.683" fill="none"/>
    </clipPath>
  </defs>
  <g id="Group_3401" data-name="Group 3401" transform="translate(1670 172.32)">
    <g id="Group_3400" data-name="Group 3400" transform="translate(-1670 -172.32)">
      <g id="Group_3395" data-name="Group 3395" transform="translate(0 4.128)">
        <path id="Path_1697" data-name="Path 1697" d="M36.446,139.22l33.98.053s-1.686-2.2-3.548-2.48c0,0-3.606-10.79-9.671-10.876-5.638-.08-7.909,6.62-7.909,6.62s-2.607-3.011-5.105-1.64-3.917,5.305-3.917,5.305a13.4,13.4,0,0,0-3.83,3.018" transform="translate(-12.642 -43.678)" fill="#ebebeb"/>
        <g id="Group_3394" data-name="Group 3394" transform="translate(0 0)">
          <path id="Path_1692" data-name="Path 1692" d="M268.942,143.2V264.925H11.714V194.306H34.029v27.1h5.744v-15.34H68.149v24.293h3.756v-95.89H96.566v54.522h12.646v19.474h3.829V196.221h22.42V232.76h6.555v-29.7h20.505V180.492h13.94V167.646h16.129v56.992h5.429V161.973h26.566v34.046h3.672V168.233H255.2V143.2Z" transform="translate(-4.063 -46.646)" fill="#ebebeb"/>
          <path id="Path_1718" data-name="Path 1718" d="M3.091,336.6l33.562-.159,33.561-.057,67.123-.11,67.123.109,33.562.057,33.561.16-33.561.16-33.562.057-67.123.108-67.123-.11-33.561-.057Z" transform="translate(-1.072 -116.649)" fill="#263238"/>
          <g id="Group_3393" data-name="Group 3393">
            <rect id="Rectangle_312" data-name="Rectangle 312" width="3.776" height="5.181" transform="translate(10.386 151.069)" fill="#fff"/>
            <rect id="Rectangle_313" data-name="Rectangle 313" width="3.776" height="5.181" transform="translate(16.93 151.069)" fill="#fff"/>
            <rect id="Rectangle_314" data-name="Rectangle 314" width="3.776" height="5.181" transform="translate(23.474 151.069)" fill="#fff"/>
            <rect id="Rectangle_315" data-name="Rectangle 315" width="3.776" height="5.181" transform="translate(10.386 158.865)" fill="#fff"/>
            <rect id="Rectangle_316" data-name="Rectangle 316" width="3.776" height="5.181" transform="translate(16.93 158.865)" fill="#fff"/>
            <rect id="Rectangle_317" data-name="Rectangle 317" width="3.776" height="5.181" transform="translate(23.474 158.865)" fill="#fff"/>
            <rect id="Rectangle_318" data-name="Rectangle 318" width="3.776" height="5.181" transform="translate(10.386 166.661)" fill="#fff"/>
            <rect id="Rectangle_319" data-name="Rectangle 319" width="3.776" height="5.181" transform="translate(16.93 166.661)" fill="#fff"/>
            <rect id="Rectangle_320" data-name="Rectangle 320" width="3.776" height="5.181" transform="translate(23.474 166.661)" fill="#fff"/>
            <rect id="Rectangle_321" data-name="Rectangle 321" width="3.776" height="5.181" transform="translate(10.386 174.457)" fill="#fff"/>
            <rect id="Rectangle_322" data-name="Rectangle 322" width="3.776" height="5.181" transform="translate(16.93 174.457)" fill="#fff"/>
            <rect id="Rectangle_323" data-name="Rectangle 323" width="3.776" height="5.181" transform="translate(23.474 174.457)" fill="#fff"/>
            <rect id="Rectangle_348" data-name="Rectangle 348" width="21.736" height="3.241" transform="translate(38.932 162.742)" fill="#fff"/>
            <rect id="Rectangle_349" data-name="Rectangle 349" width="21.736" height="3.241" transform="translate(38.932 169.03)" fill="#fff"/>
            <rect id="Rectangle_350" data-name="Rectangle 350" width="21.736" height="3.241" transform="translate(38.932 175.318)" fill="#fff"/>
            <rect id="Rectangle_351" data-name="Rectangle 351" width="21.736" height="3.241" transform="translate(38.932 181.604)" fill="#fff"/>
            <rect id="Rectangle_352" data-name="Rectangle 352" width="21.736" height="3.241" transform="translate(38.932 187.892)" fill="#fff"/>
            <rect id="Rectangle_353" data-name="Rectangle 353" width="21.736" height="3.241" transform="translate(38.932 194.18)" fill="#fff"/>
            <rect id="Rectangle_354" data-name="Rectangle 354" width="21.736" height="3.241" transform="translate(38.932 200.467)" fill="#fff"/>
            <rect id="Rectangle_355" data-name="Rectangle 355" width="21.736" height="3.241" transform="translate(38.932 206.755)" fill="#fff"/>
            <rect id="Rectangle_356" data-name="Rectangle 356" width="19.983" height="3.241" transform="translate(197.166 118.352)" fill="#fff"/>
            <rect id="Rectangle_357" data-name="Rectangle 357" width="19.983" height="3.241" transform="translate(197.166 124.639)" fill="#fff"/>
            <rect id="Rectangle_358" data-name="Rectangle 358" width="19.983" height="3.24" transform="translate(197.166 130.927)" fill="#fff"/>
            <rect id="Rectangle_359" data-name="Rectangle 359" width="19.983" height="3.24" transform="translate(197.166 137.215)" fill="#fff"/>
            <rect id="Rectangle_360" data-name="Rectangle 360" width="19.983" height="3.241" transform="translate(197.166 143.502)" fill="#fff"/>
            <rect id="Rectangle_361" data-name="Rectangle 361" width="19.983" height="3.241" transform="translate(197.166 149.789)" fill="#fff"/>
            <rect id="Rectangle_362" data-name="Rectangle 362" width="19.983" height="3.241" transform="translate(197.166 156.077)" fill="#fff"/>
            <rect id="Rectangle_363" data-name="Rectangle 363" width="19.983" height="3.241" transform="translate(197.166 162.364)" fill="#fff"/>
            <rect id="Rectangle_364" data-name="Rectangle 364" width="19.983" height="3.24" transform="translate(197.166 168.339)" fill="#fff"/>
            <rect id="Rectangle_365" data-name="Rectangle 365" width="19.983" height="3.241" transform="translate(197.166 174.313)" fill="#fff"/>
            <rect id="Rectangle_366" data-name="Rectangle 366" width="19.983" height="3.241" transform="translate(197.166 180.287)" fill="#fff"/>
            <rect id="Rectangle_367" data-name="Rectangle 367" width="19.983" height="3.24" transform="translate(197.166 186.262)" fill="#fff"/>
            <rect id="Rectangle_368" data-name="Rectangle 368" width="21.109" height="3.24" transform="translate(228.351 125.947)" fill="#fff"/>
            <rect id="Rectangle_369" data-name="Rectangle 369" width="21.109" height="3.241" transform="translate(228.351 132.234)" fill="#fff"/>
            <rect id="Rectangle_370" data-name="Rectangle 370" width="21.109" height="3.24" transform="translate(228.351 138.522)" fill="#fff"/>
            <rect id="Rectangle_371" data-name="Rectangle 371" width="21.109" height="3.24" transform="translate(228.351 144.81)" fill="#fff"/>
            <rect id="Rectangle_372" data-name="Rectangle 372" width="21.109" height="3.241" transform="translate(228.351 151.097)" fill="#fff"/>
            <rect id="Rectangle_373" data-name="Rectangle 373" width="21.109" height="3.24" transform="translate(228.351 157.384)" fill="#fff"/>
            <rect id="Rectangle_374" data-name="Rectangle 374" width="21.109" height="3.24" transform="translate(228.351 163.672)" fill="#fff"/>
            <rect id="Rectangle_375" data-name="Rectangle 375" width="21.109" height="3.241" transform="translate(228.351 169.959)" fill="#fff"/>
            <rect id="Rectangle_376" data-name="Rectangle 376" width="21.109" height="3.241" transform="translate(228.351 175.587)" fill="#fff"/>
            <rect id="Rectangle_377" data-name="Rectangle 377" width="21.109" height="3.241" transform="translate(228.351 181.214)" fill="#fff"/>
            <rect id="Rectangle_378" data-name="Rectangle 378" width="21.109" height="3.241" transform="translate(228.351 186.841)" fill="#fff"/>
            <rect id="Rectangle_452" data-name="Rectangle 452" width="3.776" height="5.092" transform="translate(253.504 98.852)" fill="#fff"/>
            <rect id="Rectangle_453" data-name="Rectangle 453" width="3.776" height="5.092" transform="translate(260.049 98.852)" fill="#fff"/>
            <rect id="Rectangle_454" data-name="Rectangle 454" width="3.776" height="5.092" transform="translate(253.504 106.515)" fill="#fff"/>
            <rect id="Rectangle_455" data-name="Rectangle 455" width="3.776" height="5.092" transform="translate(260.049 106.515)" fill="#fff"/>
            <rect id="Rectangle_456" data-name="Rectangle 456" width="3.776" height="5.092" transform="translate(253.504 114.177)" fill="#fff"/>
            <rect id="Rectangle_457" data-name="Rectangle 457" width="3.776" height="5.092" transform="translate(260.049 114.177)" fill="#fff"/>
            <rect id="Rectangle_458" data-name="Rectangle 458" width="3.776" height="5.092" transform="translate(253.504 121.839)" fill="#fff"/>
            <rect id="Rectangle_459" data-name="Rectangle 459" width="3.776" height="5.092" transform="translate(260.049 121.839)" fill="#fff"/>
            <rect id="Rectangle_460" data-name="Rectangle 460" width="3.776" height="5.093" transform="translate(253.504 129.691)" fill="#fff"/>
            <rect id="Rectangle_461" data-name="Rectangle 461" width="3.776" height="5.093" transform="translate(260.049 129.691)" fill="#fff"/>
            <rect id="Rectangle_462" data-name="Rectangle 462" width="3.776" height="5.092" transform="translate(253.504 137.544)" fill="#fff"/>
            <rect id="Rectangle_463" data-name="Rectangle 463" width="3.776" height="5.092" transform="translate(260.049 137.544)" fill="#fff"/>
            <rect id="Rectangle_464" data-name="Rectangle 464" width="3.776" height="5.092" transform="translate(253.504 145.396)" fill="#fff"/>
            <rect id="Rectangle_465" data-name="Rectangle 465" width="3.776" height="5.092" transform="translate(260.049 145.396)" fill="#fff"/>
            <rect id="Rectangle_466" data-name="Rectangle 466" width="3.776" height="5.092" transform="translate(253.504 153.248)" fill="#fff"/>
            <rect id="Rectangle_467" data-name="Rectangle 467" width="3.776" height="5.092" transform="translate(260.049 153.248)" fill="#fff"/>
            <rect id="Rectangle_468" data-name="Rectangle 468" width="3.776" height="5.092" transform="translate(253.504 161.183)" fill="#fff"/>
            <rect id="Rectangle_469" data-name="Rectangle 469" width="3.776" height="5.092" transform="translate(260.049 161.183)" fill="#fff"/>
            <rect id="Rectangle_470" data-name="Rectangle 470" width="3.776" height="5.092" transform="translate(253.504 169.119)" fill="#fff"/>
            <rect id="Rectangle_471" data-name="Rectangle 471" width="3.776" height="5.092" transform="translate(260.049 169.119)" fill="#fff"/>
            <rect id="Rectangle_472" data-name="Rectangle 472" width="3.776" height="5.092" transform="translate(253.504 177.054)" fill="#fff"/>
            <rect id="Rectangle_473" data-name="Rectangle 473" width="3.776" height="5.092" transform="translate(260.049 177.054)" fill="#fff"/>
            <rect id="Rectangle_474" data-name="Rectangle 474" width="3.776" height="5.092" transform="translate(253.504 184.99)" fill="#fff"/>
            <rect id="Rectangle_475" data-name="Rectangle 475" width="3.776" height="5.092" transform="translate(260.049 184.99)" fill="#fff"/>
            <path id="Path_1693" data-name="Path 1693" d="M48.134,59.652l-46.21-.071s2.3-2.988,4.836-3.358c0,0,4.949-14.659,13.2-14.751,7.668-.086,10.727,9.036,10.727,9.036s3.558-4.083,6.95-2.208,5.3,7.231,5.3,7.231,3.814,2.063,5.2,4.121" transform="translate(-0.667 -14.386)" fill="#ebebeb"/>
            <path id="Path_1694" data-name="Path 1694" d="M325.876,79.35l58.436.089s.006-3.735-8.044-4.477c0,0-7.325-16.33-18.549-14.155-6.99,1.354-10.578,10.944-10.578,10.944s-5.269-7.559-9.5-6.1-6.747,9.489-6.747,9.489-4.36,2.1-5.023,4.214" transform="translate(-113.04 -21.024)" fill="#ebebeb"/>
            <path id="Path_1695" data-name="Path 1695" d="M311.137,146.285l39.735.061s-3.744-3.5-5.411-3.5-6.513-11.727-12.729-11.238-9.527,9.21-9.527,9.21-7.551-2.38-12.068,5.466" transform="translate(-107.927 -45.648)" fill="#ebebeb"/>
            <path id="Path_1696" data-name="Path 1696" d="M217.83,13.306l33.98.052s-1.686-2.2-3.548-2.481c0,0-3.606-10.79-9.671-10.876-5.638-.08-7.909,6.62-7.909,6.62s-2.607-3.011-5.105-1.64-3.917,5.305-3.917,5.305a13.4,13.4,0,0,0-3.83,3.019" transform="translate(-75.561 -0.001)" fill="#ebebeb"/>
            <path id="Path_1698" data-name="Path 1698" d="M268.272,414.173c0,6.684-56.943,12.1-127.186,12.1S13.9,420.857,13.9,414.173s56.944-12.1,127.186-12.1,127.186,5.419,127.186,12.1" transform="translate(-4.822 -139.471)" fill="#ebebeb"/>
            <path id="Path_1699" data-name="Path 1699" d="M37.318,325.4s-.55-2.565-1.648-2.96a1.557,1.557,0,0,0-1.766.756s-.259-2.451-1.815-3.184a2.35,2.35,0,0,0-2.725.768s-1.195-3.109-3.329-3.109-3.211,4.55-3.211,4.55-1.259-1.357-2.55-.59-1.291,3.77-1.291,3.77Z" transform="translate(-6.585 -110.196)" fill="#37474f"/>
            <path id="Path_1701" data-name="Path 1701" d="M111.087,326.127h-19.3s.635-2.721,1.916-2.913a1.885,1.885,0,0,1,1.874,1.068s-.057-3.795,2.332-4.441,4.394,2.706,4.394,2.706a4.761,4.761,0,0,1,3.541-1.789c2.042.122,2.56,3.281,2.56,3.281s1.859-1.1,2.68,2.087" transform="translate(-31.84 -110.919)" fill="#37474f"/>
            <path id="Path_1702" data-name="Path 1702" d="M15.4,327.219H5.244s.024-1.512,1.022-1.913a1.359,1.359,0,0,1,1.592.381s.408-2.78,2.269-2.78,2.752,2.4,2.752,2.4a1.425,1.425,0,0,1,1.45-.59c1.033.135,1.074,2.5,1.074,2.5" transform="translate(-1.819 -112.011)" fill="#455a64"/>
            <path id="Path_1704" data-name="Path 1704" d="M383.942,327.219H373.783s.023-1.512,1.022-1.913a1.359,1.359,0,0,1,1.592.381s.408-2.78,2.269-2.78,2.752,2.4,2.752,2.4a1.425,1.425,0,0,1,1.45-.59c1.033.135,1.074,2.5,1.074,2.5" transform="translate(-129.658 -112.011)" fill="#455a64"/>
            <path id="Path_1705" data-name="Path 1705" d="M403.136,325.734H386.389s.039-2.492,1.685-3.154a2.243,2.243,0,0,1,2.625.629s.671-4.582,3.74-4.582,4.536,3.953,4.536,3.953a2.351,2.351,0,0,1,2.39-.972c1.7.223,1.771,4.126,1.771,4.126" transform="translate(-134.031 -110.526)" fill="#37474f"/>
            <rect id="Rectangle_505" data-name="Rectangle 505" width="272.529" height="4.748" transform="translate(0 215.208)" fill="#c7c7c7"/>
            <path id="Path_1706" data-name="Path 1706" d="M29.082,329.509a7.952,7.952,0,0,1,.324,2.374,7.826,7.826,0,0,1-.324,2.373,7.867,7.867,0,0,1-.324-2.373,7.952,7.952,0,0,1,.324-2.374" transform="translate(-9.976 -114.301)" fill="#263238"/>
            <path id="Path_1707" data-name="Path 1707" d="M61.7,329.509a7.952,7.952,0,0,1,.324,2.374,7.847,7.847,0,0,1-.324,2.373,7.867,7.867,0,0,1-.324-2.373,7.952,7.952,0,0,1,.324-2.374" transform="translate(-21.289 -114.301)" fill="#263238"/>
            <path id="Path_1716" data-name="Path 1716" d="M355.232,329.509a7.931,7.931,0,0,1,.324,2.374,7.846,7.846,0,0,1-.324,2.373,7.868,7.868,0,0,1-.324-2.373,7.952,7.952,0,0,1,.324-2.374" transform="translate(-123.111 -114.301)" fill="#263238"/>
            <path id="Path_1717" data-name="Path 1717" d="M387.848,329.509a7.951,7.951,0,0,1,.324,2.374,7.866,7.866,0,0,1-.324,2.373,7.828,7.828,0,0,1-.324-2.373,7.953,7.953,0,0,1,.324-2.374" transform="translate(-134.425 -114.301)" fill="#263238"/>
          </g>
        </g>
      </g>
      <g id="Group_3399" data-name="Group 3399" transform="translate(71.005 0)">
        <g id="Group_3398" data-name="Group 3398" transform="translate(0 0)">
          <path id="Path_1888" data-name="Path 1888" d="M192.142,288.758h-90.9a20.616,20.616,0,0,1-20.219-20.4L82,39.434a19.892,19.892,0,0,1,19.983-19.808l91.315.422a19.892,19.892,0,0,1,19.8,19.976l-.968,228.927a19.891,19.891,0,0,1-19.983,19.807" transform="translate(-81.028 -19.626)" fill="#263238"/>
          <path id="Path_1889" data-name="Path 1889" d="M196.69,33.368l-17.7-.082a4.4,4.4,0,0,0-4.318,4.475l-.014,3.211a4.4,4.4,0,0,1-4.318,4.475l-34.51-.16a4.4,4.4,0,0,1-4.28-4.514l.014-3.211a4.4,4.4,0,0,0-4.281-4.514l-6.227-.029-15.5-.071A13.931,13.931,0,0,0,91.563,46.819l-.945,223.45a13.931,13.931,0,0,0,13.866,13.99l91.132.421a13.931,13.931,0,0,0,13.994-13.872l.945-223.451A13.932,13.932,0,0,0,196.69,33.368" transform="translate(-84.555 -24.247)" fill="#f5f5f5"/>
        </g>
        <g id="Mask_Group_39" data-name="Mask Group 39" transform="translate(6.063 8.7)" clip-path="url(#clip-path)">
          <g id="Group_3396" data-name="Group 3396" transform="translate(-32.485 -0.004)">
            <rect id="Rectangle_324" data-name="Rectangle 324" width="4.614" height="5.282" transform="translate(97.413 135.676)" fill="#fff"/>
            <rect id="Rectangle_325" data-name="Rectangle 325" width="4.614" height="5.282" transform="translate(105.41 135.676)" fill="#fff"/>
            <rect id="Rectangle_326" data-name="Rectangle 326" width="4.614" height="5.282" transform="translate(113.407 135.676)" fill="#fff"/>
            <rect id="Rectangle_327" data-name="Rectangle 327" width="4.614" height="5.282" transform="translate(97.413 143.623)" fill="#fff"/>
            <rect id="Rectangle_328" data-name="Rectangle 328" width="4.614" height="5.282" transform="translate(105.41 143.623)" fill="#fff"/>
            <rect id="Rectangle_329" data-name="Rectangle 329" width="4.614" height="5.282" transform="translate(113.407 143.623)" fill="#fff"/>
            <rect id="Rectangle_330" data-name="Rectangle 330" width="4.614" height="5.282" transform="translate(97.413 151.57)" fill="#fff"/>
            <rect id="Rectangle_331" data-name="Rectangle 331" width="4.614" height="5.282" transform="translate(105.41 151.57)" fill="#fff"/>
            <rect id="Rectangle_332" data-name="Rectangle 332" width="4.614" height="5.282" transform="translate(113.407 151.57)" fill="#fff"/>
            <rect id="Rectangle_333" data-name="Rectangle 333" width="4.614" height="5.283" transform="translate(97.413 159.518)" fill="#fff"/>
            <rect id="Rectangle_334" data-name="Rectangle 334" width="4.614" height="5.283" transform="translate(105.41 159.518)" fill="#fff"/>
            <rect id="Rectangle_335" data-name="Rectangle 335" width="4.614" height="5.283" transform="translate(113.407 159.518)" fill="#fff"/>
            <rect id="Rectangle_336" data-name="Rectangle 336" width="4.614" height="5.282" transform="translate(97.413 167.662)" fill="#fff"/>
            <rect id="Rectangle_337" data-name="Rectangle 337" width="4.614" height="5.282" transform="translate(105.41 167.662)" fill="#fff"/>
            <rect id="Rectangle_338" data-name="Rectangle 338" width="4.614" height="5.282" transform="translate(113.407 167.662)" fill="#fff"/>
            <rect id="Rectangle_339" data-name="Rectangle 339" width="4.614" height="5.282" transform="translate(97.413 175.807)" fill="#fff"/>
            <rect id="Rectangle_340" data-name="Rectangle 340" width="4.614" height="5.282" transform="translate(105.41 175.807)" fill="#fff"/>
            <rect id="Rectangle_341" data-name="Rectangle 341" width="4.614" height="5.282" transform="translate(113.407 175.807)" fill="#fff"/>
            <rect id="Rectangle_342" data-name="Rectangle 342" width="4.614" height="5.282" transform="translate(97.413 183.951)" fill="#fff"/>
            <rect id="Rectangle_343" data-name="Rectangle 343" width="4.614" height="5.282" transform="translate(105.41 183.951)" fill="#fff"/>
            <rect id="Rectangle_344" data-name="Rectangle 344" width="4.614" height="5.282" transform="translate(113.407 183.951)" fill="#fff"/>
            <rect id="Rectangle_345" data-name="Rectangle 345" width="4.614" height="5.283" transform="translate(97.413 192.095)" fill="#fff"/>
            <rect id="Rectangle_346" data-name="Rectangle 346" width="4.614" height="5.283" transform="translate(105.41 192.095)" fill="#fff"/>
            <rect id="Rectangle_347" data-name="Rectangle 347" width="4.614" height="5.283" transform="translate(113.407 192.095)" fill="#fff"/>
            <rect id="Rectangle_379" data-name="Rectangle 379" width="8.202" height="3.824" transform="translate(66.169 126.384)" fill="#fff"/>
            <rect id="Rectangle_380" data-name="Rectangle 380" width="8.202" height="3.824" transform="translate(66.169 133.803)" fill="#fff"/>
            <rect id="Rectangle_381" data-name="Rectangle 381" width="8.202" height="3.824" transform="translate(66.169 141.223)" fill="#fff"/>
            <rect id="Rectangle_382" data-name="Rectangle 382" width="8.202" height="3.824" transform="translate(66.169 148.643)" fill="#fff"/>
            <rect id="Rectangle_383" data-name="Rectangle 383" width="8.202" height="3.824" transform="translate(66.169 156.062)" fill="#fff"/>
            <rect id="Rectangle_384" data-name="Rectangle 384" width="8.202" height="3.824" transform="translate(66.169 163.483)" fill="#fff"/>
            <rect id="Rectangle_385" data-name="Rectangle 385" width="8.202" height="3.824" transform="translate(66.169 170.903)" fill="#fff"/>
            <rect id="Rectangle_386" data-name="Rectangle 386" width="8.202" height="3.824" transform="translate(66.169 178.322)" fill="#fff"/>
            <rect id="Rectangle_387" data-name="Rectangle 387" width="8.202" height="3.824" transform="translate(77.33 126.384)" fill="#fff"/>
            <rect id="Rectangle_388" data-name="Rectangle 388" width="8.202" height="3.824" transform="translate(77.33 133.803)" fill="#fff"/>
            <rect id="Rectangle_389" data-name="Rectangle 389" width="8.202" height="3.824" transform="translate(77.33 141.223)" fill="#fff"/>
            <rect id="Rectangle_390" data-name="Rectangle 390" width="8.202" height="3.824" transform="translate(77.33 148.643)" fill="#fff"/>
            <rect id="Rectangle_391" data-name="Rectangle 391" width="8.202" height="3.824" transform="translate(77.33 156.062)" fill="#fff"/>
            <rect id="Rectangle_392" data-name="Rectangle 392" width="8.202" height="3.824" transform="translate(77.33 163.483)" fill="#fff"/>
            <rect id="Rectangle_393" data-name="Rectangle 393" width="8.202" height="3.824" transform="translate(77.33 170.903)" fill="#fff"/>
            <rect id="Rectangle_394" data-name="Rectangle 394" width="8.202" height="3.824" transform="translate(77.33 178.322)" fill="#fff"/>
            <rect id="Rectangle_395" data-name="Rectangle 395" width="8.545" height="6.03" transform="translate(12.46 51.351)" fill="#fff"/>
            <rect id="Rectangle_396" data-name="Rectangle 396" width="8.545" height="6.03" transform="translate(25.2 51.351)" fill="#fff"/>
            <rect id="Rectangle_397" data-name="Rectangle 397" width="8.545" height="6.03" transform="translate(12.46 60.21)" fill="#fff"/>
            <rect id="Rectangle_398" data-name="Rectangle 398" width="8.545" height="6.03" transform="translate(25.2 60.21)" fill="#fff"/>
            <rect id="Rectangle_399" data-name="Rectangle 399" width="8.545" height="6.03" transform="translate(12.46 69.069)" fill="#fff"/>
            <rect id="Rectangle_400" data-name="Rectangle 400" width="8.545" height="6.03" transform="translate(25.2 69.069)" fill="#fff"/>
            <rect id="Rectangle_401" data-name="Rectangle 401" width="8.545" height="6.03" transform="translate(12.46 77.927)" fill="#fff"/>
            <rect id="Rectangle_402" data-name="Rectangle 402" width="8.545" height="6.03" transform="translate(25.2 77.927)" fill="#fff"/>
            <rect id="Rectangle_403" data-name="Rectangle 403" width="8.545" height="6.03" transform="translate(12.46 86.786)" fill="#fff"/>
            <rect id="Rectangle_404" data-name="Rectangle 404" width="8.545" height="6.03" transform="translate(25.2 86.786)" fill="#fff"/>
            <rect id="Rectangle_405" data-name="Rectangle 405" width="8.545" height="6.03" transform="translate(12.46 95.644)" fill="#fff"/>
            <rect id="Rectangle_406" data-name="Rectangle 406" width="8.545" height="6.03" transform="translate(25.2 95.644)" fill="#fff"/>
            <rect id="Rectangle_407" data-name="Rectangle 407" width="8.545" height="6.03" transform="translate(12.46 104.503)" fill="#fff"/>
            <rect id="Rectangle_408" data-name="Rectangle 408" width="8.545" height="6.03" transform="translate(25.2 104.503)" fill="#fff"/>
            <rect id="Rectangle_409" data-name="Rectangle 409" width="8.545" height="6.03" transform="translate(12.46 113.361)" fill="#fff"/>
            <rect id="Rectangle_410" data-name="Rectangle 410" width="8.545" height="6.03" transform="translate(25.2 113.361)" fill="#fff"/>
            <rect id="Rectangle_411" data-name="Rectangle 411" width="8.546" height="6.03" transform="translate(40.989 116.575)" fill="#fff"/>
            <rect id="Rectangle_412" data-name="Rectangle 412" width="8.546" height="6.03" transform="translate(40.989 125.434)" fill="#fff"/>
            <rect id="Rectangle_413" data-name="Rectangle 413" width="8.546" height="6.03" transform="translate(40.989 134.293)" fill="#fff"/>
            <rect id="Rectangle_414" data-name="Rectangle 414" width="8.546" height="6.03" transform="translate(40.989 143.151)" fill="#fff"/>
            <rect id="Rectangle_415" data-name="Rectangle 415" width="8.546" height="6.03" transform="translate(40.989 152.009)" fill="#fff"/>
            <rect id="Rectangle_416" data-name="Rectangle 416" width="8.546" height="6.03" transform="translate(40.989 160.868)" fill="#fff"/>
            <rect id="Rectangle_417" data-name="Rectangle 417" width="8.545" height="6.03" transform="translate(12.46 122.115)" fill="#fff"/>
            <rect id="Rectangle_418" data-name="Rectangle 418" width="8.545" height="6.03" transform="translate(25.2 122.115)" fill="#fff"/>
            <rect id="Rectangle_419" data-name="Rectangle 419" width="8.546" height="6.03" transform="translate(40.989 169.622)" fill="#fff"/>
            <rect id="Rectangle_420" data-name="Rectangle 420" width="8.545" height="6.03" transform="translate(12.46 130.868)" fill="#fff"/>
            <rect id="Rectangle_421" data-name="Rectangle 421" width="8.545" height="6.03" transform="translate(25.2 130.868)" fill="#fff"/>
            <rect id="Rectangle_422" data-name="Rectangle 422" width="8.546" height="6.03" transform="translate(40.989 178.375)" fill="#fff"/>
            <rect id="Rectangle_423" data-name="Rectangle 423" width="8.545" height="6.03" transform="translate(12.46 139.621)" fill="#fff"/>
            <rect id="Rectangle_424" data-name="Rectangle 424" width="8.545" height="6.03" transform="translate(25.2 139.621)" fill="#fff"/>
            <rect id="Rectangle_425" data-name="Rectangle 425" width="8.546" height="6.03" transform="translate(40.989 187.128)" fill="#fff"/>
            <rect id="Rectangle_426" data-name="Rectangle 426" width="8.545" height="6.03" transform="translate(12.46 148.374)" fill="#fff"/>
            <rect id="Rectangle_427" data-name="Rectangle 427" width="8.545" height="6.03" transform="translate(25.2 148.374)" fill="#fff"/>
            <rect id="Rectangle_428" data-name="Rectangle 428" width="8.545" height="6.03" transform="translate(12.46 157.128)" fill="#fff"/>
            <rect id="Rectangle_429" data-name="Rectangle 429" width="8.545" height="6.03" transform="translate(25.2 157.128)" fill="#fff"/>
            <rect id="Rectangle_430" data-name="Rectangle 430" width="4.614" height="5.282" transform="translate(122.101 107.465)" fill="#fff"/>
            <rect id="Rectangle_431" data-name="Rectangle 431" width="4.614" height="5.282" transform="translate(130.098 107.465)" fill="#fff"/>
            <rect id="Rectangle_432" data-name="Rectangle 432" width="4.614" height="5.282" transform="translate(122.101 115.413)" fill="#fff"/>
            <rect id="Rectangle_433" data-name="Rectangle 433" width="4.614" height="5.282" transform="translate(130.098 115.413)" fill="#fff"/>
            <rect id="Rectangle_434" data-name="Rectangle 434" width="4.614" height="5.282" transform="translate(122.101 123.36)" fill="#fff"/>
            <rect id="Rectangle_435" data-name="Rectangle 435" width="4.614" height="5.282" transform="translate(130.098 123.36)" fill="#fff"/>
            <rect id="Rectangle_436" data-name="Rectangle 436" width="4.614" height="5.283" transform="translate(122.101 131.307)" fill="#fff"/>
            <rect id="Rectangle_437" data-name="Rectangle 437" width="4.614" height="5.283" transform="translate(130.098 131.307)" fill="#fff"/>
            <rect id="Rectangle_438" data-name="Rectangle 438" width="4.614" height="5.282" transform="translate(122.101 139.452)" fill="#fff"/>
            <rect id="Rectangle_439" data-name="Rectangle 439" width="4.614" height="5.282" transform="translate(130.098 139.452)" fill="#fff"/>
            <rect id="Rectangle_440" data-name="Rectangle 440" width="4.614" height="5.282" transform="translate(122.101 147.597)" fill="#fff"/>
            <rect id="Rectangle_441" data-name="Rectangle 441" width="4.614" height="5.282" transform="translate(130.098 147.597)" fill="#fff"/>
            <rect id="Rectangle_442" data-name="Rectangle 442" width="4.614" height="5.283" transform="translate(122.101 155.74)" fill="#fff"/>
            <rect id="Rectangle_443" data-name="Rectangle 443" width="4.614" height="5.283" transform="translate(130.098 155.74)" fill="#fff"/>
            <rect id="Rectangle_444" data-name="Rectangle 444" width="4.614" height="5.282" transform="translate(122.101 163.886)" fill="#fff"/>
            <rect id="Rectangle_445" data-name="Rectangle 445" width="4.614" height="5.282" transform="translate(130.098 163.886)" fill="#fff"/>
            <rect id="Rectangle_446" data-name="Rectangle 446" width="4.614" height="5.282" transform="translate(122.101 172.116)" fill="#fff"/>
            <rect id="Rectangle_447" data-name="Rectangle 447" width="4.614" height="5.282" transform="translate(130.098 172.116)" fill="#fff"/>
            <rect id="Rectangle_448" data-name="Rectangle 448" width="4.614" height="5.283" transform="translate(122.101 180.346)" fill="#fff"/>
            <rect id="Rectangle_449" data-name="Rectangle 449" width="4.614" height="5.283" transform="translate(130.098 180.346)" fill="#fff"/>
            <rect id="Rectangle_450" data-name="Rectangle 450" width="4.614" height="5.282" transform="translate(122.101 188.578)" fill="#fff"/>
            <rect id="Rectangle_451" data-name="Rectangle 451" width="4.614" height="5.282" transform="translate(130.098 188.578)" fill="#fff"/>
            <rect id="Rectangle_476" data-name="Rectangle 476" width="4.613" height="5.282" transform="translate(139.203 107.465)" fill="#fff"/>
            <rect id="Rectangle_477" data-name="Rectangle 477" width="4.614" height="5.282" transform="translate(147.199 107.465)" fill="#fff"/>
            <rect id="Rectangle_478" data-name="Rectangle 478" width="4.613" height="5.282" transform="translate(139.203 99.316)" fill="#fff"/>
            <rect id="Rectangle_479" data-name="Rectangle 479" width="4.614" height="5.282" transform="translate(147.199 99.316)" fill="#fff"/>
            <rect id="Rectangle_480" data-name="Rectangle 480" width="4.613" height="5.282" transform="translate(139.203 91.168)" fill="#fff"/>
            <rect id="Rectangle_481" data-name="Rectangle 481" width="4.614" height="5.282" transform="translate(147.199 91.168)" fill="#fff"/>
            <rect id="Rectangle_482" data-name="Rectangle 482" width="4.613" height="5.282" transform="translate(139.203 115.413)" fill="#fff"/>
            <rect id="Rectangle_483" data-name="Rectangle 483" width="4.614" height="5.282" transform="translate(147.199 115.413)" fill="#fff"/>
            <rect id="Rectangle_484" data-name="Rectangle 484" width="4.613" height="5.282" transform="translate(139.203 123.36)" fill="#fff"/>
            <rect id="Rectangle_485" data-name="Rectangle 485" width="4.614" height="5.282" transform="translate(147.199 123.36)" fill="#fff"/>
            <rect id="Rectangle_486" data-name="Rectangle 486" width="4.613" height="5.283" transform="translate(139.203 131.307)" fill="#fff"/>
            <rect id="Rectangle_487" data-name="Rectangle 487" width="4.614" height="5.283" transform="translate(147.199 131.307)" fill="#fff"/>
            <rect id="Rectangle_488" data-name="Rectangle 488" width="4.613" height="5.282" transform="translate(139.203 139.452)" fill="#fff"/>
            <rect id="Rectangle_489" data-name="Rectangle 489" width="4.614" height="5.282" transform="translate(147.199 139.452)" fill="#fff"/>
            <rect id="Rectangle_490" data-name="Rectangle 490" width="4.613" height="5.282" transform="translate(139.203 147.597)" fill="#fff"/>
            <rect id="Rectangle_491" data-name="Rectangle 491" width="4.614" height="5.282" transform="translate(147.199 147.597)" fill="#fff"/>
            <rect id="Rectangle_492" data-name="Rectangle 492" width="4.613" height="5.283" transform="translate(139.203 155.74)" fill="#fff"/>
            <rect id="Rectangle_493" data-name="Rectangle 493" width="4.614" height="5.283" transform="translate(147.199 155.74)" fill="#fff"/>
            <rect id="Rectangle_494" data-name="Rectangle 494" width="4.613" height="5.282" transform="translate(139.203 163.886)" fill="#fff"/>
            <rect id="Rectangle_495" data-name="Rectangle 495" width="4.614" height="5.282" transform="translate(147.199 163.886)" fill="#fff"/>
            <rect id="Rectangle_496" data-name="Rectangle 496" width="4.613" height="5.282" transform="translate(139.203 172.116)" fill="#fff"/>
            <rect id="Rectangle_497" data-name="Rectangle 497" width="4.614" height="5.282" transform="translate(147.199 172.116)" fill="#fff"/>
            <rect id="Rectangle_498" data-name="Rectangle 498" width="4.613" height="5.283" transform="translate(139.203 180.346)" fill="#fff"/>
            <rect id="Rectangle_499" data-name="Rectangle 499" width="4.614" height="5.283" transform="translate(147.199 180.346)" fill="#fff"/>
            <rect id="Rectangle_500" data-name="Rectangle 500" width="4.613" height="5.282" transform="translate(139.203 188.578)" fill="#fff"/>
            <rect id="Rectangle_501" data-name="Rectangle 501" width="4.614" height="5.282" transform="translate(147.199 188.578)" fill="#fff"/>
            <path id="Path_1700" data-name="Path 1700" d="M320.233,327.119s-.672-3.134-2.014-3.617a1.9,1.9,0,0,0-2.157.923s-.316-2.994-2.219-3.891-3.33.939-3.33.939-1.46-3.8-4.068-3.8-3.923,5.56-3.923,5.56-1.538-1.658-3.117-.721-1.578,4.607-1.578,4.607Z" transform="translate(-135.146 -124.119)" fill="#455a64"/>
            <path id="Path_1703" data-name="Path 1703" d="M130.4,328.176H117.986s.029-1.848,1.249-2.338a1.661,1.661,0,0,1,1.946.466s.5-3.4,2.773-3.4,3.362,2.931,3.362,2.931a1.742,1.742,0,0,1,1.772-.721c1.263.165,1.313,3.059,1.313,3.059" transform="translate(-98.834 -125.176)" fill="#455a64"/>
            <path id="Path_1708" data-name="Path 1708" d="M94.384,329.509a9.717,9.717,0,0,1,.4,2.9,9.614,9.614,0,0,1-.4,2.9,9.563,9.563,0,0,1-.4-2.9,9.717,9.717,0,0,1,.4-2.9" transform="translate(-93.988 -126.509)" fill="#263238"/>
            <path id="Path_1709" data-name="Path 1709" d="M127,329.509a9.717,9.717,0,0,1,.4,2.9,9.589,9.589,0,0,1-.4,2.9,9.614,9.614,0,0,1-.4-2.9,9.717,9.717,0,0,1,.4-2.9" transform="translate(-100.573 -126.509)" fill="#263238"/>
            <path id="Path_1710" data-name="Path 1710" d="M159.614,329.509a9.718,9.718,0,0,1,.4,2.9,9.614,9.614,0,0,1-.4,2.9,9.614,9.614,0,0,1-.4-2.9,9.718,9.718,0,0,1,.4-2.9" transform="translate(-107.159 -126.509)" fill="#263238"/>
            <path id="Path_1711" data-name="Path 1711" d="M192.229,329.509a9.716,9.716,0,0,1,.4,2.9,9.587,9.587,0,0,1-.4,2.9,9.615,9.615,0,0,1-.4-2.9,9.718,9.718,0,0,1,.4-2.9" transform="translate(-113.744 -126.509)" fill="#263238"/>
            <path id="Path_1712" data-name="Path 1712" d="M224.844,329.509a9.716,9.716,0,0,1,.4,2.9,9.588,9.588,0,0,1-.4,2.9,9.613,9.613,0,0,1-.4-2.9,9.716,9.716,0,0,1,.4-2.9" transform="translate(-120.329 -126.509)" fill="#263238"/>
            <path id="Path_1713" data-name="Path 1713" d="M257.459,329.509a9.718,9.718,0,0,1,.4,2.9,9.615,9.615,0,0,1-.4,2.9,9.615,9.615,0,0,1-.4-2.9,9.717,9.717,0,0,1,.4-2.9" transform="translate(-126.915 -126.509)" fill="#263238"/>
            <path id="Path_1714" data-name="Path 1714" d="M290.074,329.509a9.716,9.716,0,0,1,.4,2.9,9.614,9.614,0,0,1-.4,2.9,9.562,9.562,0,0,1-.4-2.9,9.691,9.691,0,0,1,.4-2.9" transform="translate(-133.5 -126.509)" fill="#263238"/>
            <path id="Path_1715" data-name="Path 1715" d="M322.689,329.509a9.716,9.716,0,0,1,.4,2.9,9.589,9.589,0,0,1-.4,2.9,9.615,9.615,0,0,1-.4-2.9,9.717,9.717,0,0,1,.4-2.9" transform="translate(-140.086 -126.509)" fill="#263238"/>
            <rect id="Rectangle_507" data-name="Rectangle 507" width="178.956" height="251.737" transform="translate(2.072 0)" fill="#ebebeb"/>
            <rect id="Rectangle_508" data-name="Rectangle 508" width="69.446" height="4.381" transform="translate(84.593 0.003)" fill="#c7c7c7"/>
            <path id="Path_1722" data-name="Path 1722" d="M170.386,112.346v42.969H121.607v11.748H96.587v2.985h25.02v44.406l8.986,20.535H99.548v91.9h5.97V306.513h24.9v-2.977h-24.9V240.958H133.2l7.031,16.066a21.256,21.256,0,0,0,6.752,40.687h.016l14.6,23.855-5.323,5.323h8.444l.088-.088.056.088h7l-18.18-29.681a21.316,21.316,0,0,0,16.3-20.678,21,21,0,0,0-1.389-7.55l41.684-19.825H251.5v50.407l-27.319,27.327h4.222l23.1-23.1v23.1h5.97V249.154h18.069v-5.97H228.766l-34.964-38h81.74v-2.985H191.057l-37.63-40.91h60.854l20.559-21.8,40.7,40.7v-8.436l-36.6-36.6,19.1-20.255V75.155h-5.97v37.366L211.7,155.315H196.18V125.762h6.169v-2.985H193.2v32.538h-16.84V75.155h-5.97v31.221h-73.8v5.97ZM148.7,261.229a15.3,15.3,0,1,1-15.3,15.3,15.317,15.317,0,0,1,15.3-15.3m-21.125-48.037V161.285H145.31l75.34,81.9H208.918l-43.224,20.559A21.272,21.272,0,0,0,148.7,255.26a22.524,22.524,0,0,0-2.658.168Z" transform="translate(-94.513 -75.152)" fill="#a6a6a6"/>
            <rect id="Rectangle_509" data-name="Rectangle 509" width="8.678" height="8.678" transform="translate(38.179 90.659)" fill="#c7c7c7"/>
            <path id="Path_1723" data-name="Path 1723" d="M250.568,224.435V207.675h-6.1v-7H233.738v23.761Z" transform="translate(-122.205 -100.496)" fill="#c7c7c7"/>
            <path id="Path_1724" data-name="Path 1724" d="M199.982,84.074v9.757h4.91V104.1h9.093V84.074Z" transform="translate(-115.39 -76.953)" fill="#c7c7c7"/>
            <rect id="Rectangle_510" data-name="Rectangle 510" width="10.679" height="14.623" transform="translate(143.36 7.121)" fill="#c7c7c7"/>
            <path id="Path_1725" data-name="Path 1725" d="M224.326,169.269V156.811h23.352l-12.614,12.613Z" transform="translate(-120.305 -91.639)" fill="#c7c7c7"/>
            <rect id="Rectangle_511" data-name="Rectangle 511" width="11.731" height="11.731" transform="translate(84.593 66.054)" fill="#c7c7c7"/>
            <rect id="Rectangle_512" data-name="Rectangle 512" width="9.378" height="19.507" transform="translate(2.121 69.27)" fill="#c7c7c7"/>
            <rect id="Rectangle_513" data-name="Rectangle 513" width="10.595" height="8.976" transform="translate(14.029 79.801)" fill="#c7c7c7"/>
            <rect id="Rectangle_514" data-name="Rectangle 514" width="14.131" height="12.997" transform="translate(58.94 39.536)" fill="#c7c7c7"/>
            <path id="Path_1726" data-name="Path 1726" d="M178.385,144.17v22.7H161.1l-11.02-11.02V144.17Z" transform="translate(-105.314 -89.087)" fill="#c7c7c7"/>
            <path id="Path_1727" data-name="Path 1727" d="M142.507,161.946l8.682,8.682H128.021v-8.682Z" transform="translate(-100.86 -92.676)" fill="#c7c7c7"/>
            <path id="Path_1728" data-name="Path 1728" d="M133.727,286.283H111.566v10.454h26.378Z" transform="translate(-97.537 -117.781)" fill="#c7c7c7"/>
            <rect id="Rectangle_515" data-name="Rectangle 515" width="9.509" height="14.389" transform="translate(14.029 184.084)" fill="#c7c7c7"/>
            <path id="Path_1729" data-name="Path 1729" d="M133.892,350.513V345.49a32.229,32.229,0,0,1-7.872-17.307H111.561v22.331Z" transform="translate(-97.536 -126.241)" fill="#c7c7c7"/>
            <path id="Path_1730" data-name="Path 1730" d="M194.687,290.555l-9.081-19.615H174.545L155.656,279.7l4.934,10.782h.04a25.531,25.531,0,0,1,17.943,7.33Z" transform="translate(-106.439 -114.683)" fill="#c7c7c7"/>
            <path id="Path_1731" data-name="Path 1731" d="M250.309,264.9l11.986,13.03h23.552V264.9Z" transform="translate(-125.551 -113.464)" fill="#c7c7c7"/>
            <rect id="Rectangle_516" data-name="Rectangle 516" width="14.896" height="13.03" transform="translate(163.415 151.439)" fill="#c7c7c7"/>
            <path id="Path_1732" data-name="Path 1732" d="M136.387,376.469v7.366h21.82l6.065-6.409-12.386-20.232-6.664,5.595v13.679Z" transform="translate(-102.549 -132.099)" fill="#c7c7c7"/>
            <path id="Path_1733" data-name="Path 1733" d="M214.548,349.009l-17.92-18.682-6.873,5.372a25.952,25.952,0,0,1-12.712,15.308l14.99,24.489Z" transform="translate(-110.758 -126.674)" fill="#c7c7c7"/>
            <path id="Path_1734" data-name="Path 1734" d="M199.58,316.058,231.059,300.5h15.7V327.87l-24.477,12.089Z" transform="translate(-115.308 -120.651)" fill="#c7c7c7"/>
            <path id="Path_1735" data-name="Path 1735" d="M283.1,372.327v13.525H269.577Z" transform="translate(-129.441 -135.154)" fill="#c7c7c7"/>
            <path id="Path_1736" data-name="Path 1736" d="M141.826,204.16v34.4l9.6,23.483,17.517-8.679h40.85L163.984,204.16Z" transform="translate(-103.647 -101.199)" fill="#5e795e"/>
            <path id="Path_1737" data-name="Path 1737" d="M258.124,142.5h-33.8v8.47h25.809Z" transform="translate(-120.305 -88.751)" fill="#c7c7c7"/>
            <rect id="Rectangle_517" data-name="Rectangle 517" width="22.503" height="24.792" transform="translate(2.121 98.359)" fill="#c7c7c7"/>
            <rect id="Rectangle_518" data-name="Rectangle 518" width="10.595" height="10.595" transform="translate(14.029 127.135)" fill="#c7c7c7"/>
            <path id="Path_1738" data-name="Path 1738" d="M120.665,251.759H104.157v16.067H127.6Z" transform="translate(-96.041 -110.81)" fill="#c7c7c7"/>
            <rect id="Rectangle_519" data-name="Rectangle 519" width="9.378" height="3.2" transform="translate(2.121 127.135)" fill="#c7c7c7"/>
            <rect id="Rectangle_520" data-name="Rectangle 520" width="9.378" height="5.298" transform="translate(2.121 132.432)" fill="#c7c7c7"/>
            <rect id="Rectangle_521" data-name="Rectangle 521" width="17.259" height="17.905" transform="translate(135.803 179.845)" fill="#c7c7c7"/>
            <rect id="Rectangle_522" data-name="Rectangle 522" width="17.259" height="6.285" transform="translate(135.803 200.54)" fill="#c7c7c7"/>
            <path id="Path_1739" data-name="Path 1739" d="M201.037,383.835h39.625l6.975-6.975-24.789-19.665Z" transform="translate(-115.602 -132.099)" fill="#c7c7c7"/>
            <path id="Path_1740" data-name="Path 1740" d="M256.07,370.458l10.224-9.813-12.4-10.8v-9.712l-21.861,11.137Z" transform="translate(-121.861 -128.655)" fill="#5e795e"/>
            <path id="Path_1741" data-name="Path 1741" d="M281.408,351.016l-6.166,5.791-11.093-9.322v-9.712h17.259Z" transform="translate(-128.345 -128.178)" fill="#c7c7c7"/>
            <rect id="Rectangle_523" data-name="Rectangle 523" width="15.379" height="16.959" transform="translate(14.03 234.777)" fill="#c7c7c7"/>
            <rect id="Rectangle_524" data-name="Rectangle 524" width="5.267" height="5.267" transform="translate(33.837 236.184)" fill="#c7c7c7"/>
            <rect id="Rectangle_525" data-name="Rectangle 525" width="13.607" height="22.099" transform="translate(167.422 179.924)" fill="#c7c7c7"/>
            <path id="Path_1742" data-name="Path 1742" d="M303.767,334.395v15.323l13.607,8.308V334.395Z" transform="translate(-136.345 -127.496)" fill="#c7c7c7"/>
            <path id="Path_1743" data-name="Path 1743" d="M303.667,360.1V375.54h13.687v-7.733Z" transform="translate(-136.325 -132.687)" fill="#c7c7c7"/>
            <rect id="Rectangle_526" data-name="Rectangle 526" width="5.898" height="6.409" transform="translate(167.342 245.327)" fill="#c7c7c7"/>
            <rect id="Rectangle_527" data-name="Rectangle 527" width="4.812" height="6.409" transform="translate(176.217 245.327)" fill="#c7c7c7"/>
            <rect id="Rectangle_528" data-name="Rectangle 528" width="13.025" height="25.73" transform="translate(168.005 0.003)" fill="#c7c7c7"/>
            <path id="Path_1744" data-name="Path 1744" d="M142.537,82.936v19.856h33.416V75.155H151Z" transform="translate(-103.791 -75.152)" fill="#c7c7c7"/>
            <rect id="Rectangle_529" data-name="Rectangle 529" width="19.681" height="10.657" transform="translate(16.232 16.983)" fill="#c7c7c7"/>
            <rect id="Rectangle_530" data-name="Rectangle 530" width="19.681" height="5.954" transform="translate(16.231 8.279)" fill="#c7c7c7"/>
            <path id="Path_1745" data-name="Path 1745" d="M104.8,85.936h4.08v19.033h-9.1V91.233Z" transform="translate(-95.159 -77.329)" fill="#c7c7c7"/>
            <path id="Path_1746" data-name="Path 1746" d="M99.787,75.155v5.882h33.121l6.273-5.882Z" transform="translate(-95.159 -75.152)" fill="#c7c7c7"/>
            <path id="Path_1747" data-name="Path 1747" d="M229.407,242.6l14.189,14.9h13.537V242.6Z" transform="translate(-121.331 -108.961)" fill="#c7c7c7"/>
            <rect id="Rectangle_531" data-name="Rectangle 531" width="16.097" height="6.854" transform="translate(138.619 141.689)" fill="#c7c7c7"/>
            <rect id="Rectangle_532" data-name="Rectangle 532" width="7.251" height="6.224" transform="translate(138.618 133.641)" fill="#c7c7c7"/>
            <rect id="Rectangle_533" data-name="Rectangle 533" width="7.046" height="6.224" transform="translate(147.67 133.641)" fill="#c7c7c7"/>
            <rect id="Rectangle_534" data-name="Rectangle 534" width="10.171" height="14.903" transform="translate(156.674 133.641)" fill="#c7c7c7"/>
            <path id="Path_1748" data-name="Path 1748" d="M315.01,257.505H306.2v-10.19l4.218-4.714h4.589Z" transform="translate(-136.837 -108.961)" fill="#c7c7c7"/>
            <path id="Path_1749" data-name="Path 1749" d="M198.5,270.94h22.741v10.875l-14.539,6.6Z" transform="translate(-115.09 -114.683)" fill="#c7c7c7"/>
            <path id="Path_1750" data-name="Path 1750" d="M169.512,325a10.207,10.207,0,1,0-10.207,10.207A10.207,10.207,0,0,0,169.512,325" transform="translate(-105.116 -123.537)" fill="#5e795e"/>
            <path id="Path_1751" data-name="Path 1751" d="M113.314,124.69H96.645v27.84h9.378l7.291-9.519Z" transform="translate(-94.525 -85.154)" fill="#c7c7c7"/>
            <path id="Path_1752" data-name="Path 1752" d="M122.161,151.785h-5.834L111.566,158v9.813h10.595Z" transform="translate(-97.537 -90.624)" fill="#c7c7c7"/>
            <rect id="Rectangle_535" data-name="Rectangle 535" width="9.274" height="7.843" transform="translate(21.706 39.537)" fill="#c7c7c7"/>
            <path id="Path_1753" data-name="Path 1753" d="M142.259,151.592V124.7h-8.335v21.625h-5.9v5.271Z" transform="translate(-100.86 -85.155)" fill="#c7c7c7"/>
            <rect id="Rectangle_536" data-name="Rectangle 536" width="11.797" height="12.273" transform="translate(44.768 39.536)" fill="#c7c7c7"/>
            <rect id="Rectangle_537" data-name="Rectangle 537" width="9.284" height="9.918" transform="translate(21.696 48.881)" fill="#c7c7c7"/>
            <path id="Path_1754" data-name="Path 1754" d="M283.56,177.314V219.72h28.486V205.31Z" transform="translate(-132.265 -95.779)" fill="#c7c7c7"/>
            <rect id="Rectangle_538" data-name="Rectangle 538" width="17.531" height="16.761" transform="translate(130.901 107.179)" fill="#c7c7c7"/>
            <path id="Path_1755" data-name="Path 1755" d="M177.81,186.826l18.286,19.9h22.952v-19.9Z" transform="translate(-110.913 -97.7)" fill="#c7c7c7"/>
            <path id="Path_1756" data-name="Path 1756" d="M203.988,214.64l11.6,12.616h8.682V214.64Z" transform="translate(-116.198 -103.316)" fill="#c7c7c7"/>
            <rect id="Rectangle_539" data-name="Rectangle 539" width="10.733" height="8.312" transform="translate(111.533 89.126)" fill="#c7c7c7"/>
            <path id="Path_1757" data-name="Path 1757" d="M274.091,189.767V171.08l-8.484-9.132L250.825,177.8v18.133h17.527v-6.169Z" transform="translate(-125.655 -92.676)" fill="#5e795e"/>
            <path id="Path_1758" data-name="Path 1758" d="M295.115,130.284l-15.026,16.4L297.14,163.34l9.417-10.158Z" transform="translate(-131.564 -86.283)" fill="#c7c7c7"/>
            <path id="Path_1759" data-name="Path 1759" d="M303.877,171.885l13.52,13.44v-23.24h-4.437Z" transform="translate(-136.367 -92.704)" fill="#c7c7c7"/>
            <path id="Path_1760" data-name="Path 1760" d="M301.7,123.522l7.438,15.922h7.821v-28.9H303.931v10.583Z" transform="translate(-135.927 -82.297)" fill="#c7c7c7"/>
            <rect id="Rectangle_540" data-name="Rectangle 540" width="4.262" height="8.021" transform="translate(176.768 59.094)" fill="#c7c7c7"/>
            <path id="Path_1761" data-name="Path 1761" d="M280.251,105.814H253.585V132.4h13.393l13.274-14.582Z" transform="translate(-126.213 -81.342)" fill="#c7c7c7"/>
            <rect id="Rectangle_541" data-name="Rectangle 541" width="13.037" height="16.852" transform="translate(111.221 34.207)" fill="#5e795e"/>
            <path id="Path_1762" data-name="Path 1762" d="M262.894,98.7V84.073H233.352v24.971h13.03V98.7Z" transform="translate(-122.127 -76.953)" fill="#c7c7c7"/>
            <rect id="Rectangle_542" data-name="Rectangle 542" width="9.362" height="14.269" transform="translate(100.178 7.121)" fill="#c7c7c7"/>
            <rect id="Rectangle_543" data-name="Rectangle 543" width="24.946" height="12.265" transform="translate(84.593 28.963)" fill="#c7c7c7"/>
            <rect id="Rectangle_544" data-name="Rectangle 544" width="9.362" height="3.98" transform="translate(100.177 23.164)" fill="#c7c7c7"/>
            <path id="Path_1763" data-name="Path 1763" d="M211.713,150.371h-6.821l-4.91-4.66V132.15h11.731Z" transform="translate(-115.39 -86.66)" fill="#c7c7c7"/>
            <path id="Path_1764" data-name="Path 1764" d="M240.02,110.8c-4.026-4.62-7.795-9.685-7.243-15.277.36-3.624,2.856-7.231,7.243-7.231s6.883,3.607,7.243,7.231c.558,5.592-3.216,10.657-7.243,15.277" transform="translate(-122 -77.805)" fill="#fff"/>
            <path id="Path_1765" data-name="Path 1765" d="M239.98,110.751a49.584,49.584,0,0,1-4.461-5.611,18.1,18.1,0,0,1-2.82-6.591,11.637,11.637,0,0,1-.062-3.619,9.365,9.365,0,0,1,1.229-3.414,7.441,7.441,0,0,1,2.589-2.554,7.227,7.227,0,0,1,7.05,0,7.436,7.436,0,0,1,2.589,2.555,9.351,9.351,0,0,1,1.228,3.415,11.588,11.588,0,0,1-.06,3.619,18.078,18.078,0,0,1-2.82,6.591,49.672,49.672,0,0,1-4.462,5.61m0,0a49.547,49.547,0,0,0,4.3-5.715A17.875,17.875,0,0,0,246.96,98.5a11.912,11.912,0,0,0,.022-3.516,8.995,8.995,0,0,0-1.2-3.277,7.077,7.077,0,0,0-2.468-2.414,6.975,6.975,0,0,0-6.672,0,7.056,7.056,0,0,0-2.469,2.413,8.99,8.99,0,0,0-1.2,3.278A11.88,11.88,0,0,0,233,98.5a17.9,17.9,0,0,0,2.682,6.536,49.369,49.369,0,0,0,4.3,5.716" transform="translate(-121.96 -77.754)" fill="#263238"/>
            <path id="Path_1770" data-name="Path 1770" d="M270.727,167.617c-4.026-4.62-7.795-9.685-7.243-15.277.36-3.624,2.856-7.231,7.243-7.231s6.883,3.607,7.243,7.231c.558,5.592-3.216,10.657-7.243,15.277" transform="translate(-128.2 -89.276)" fill="#fff"/>
            <path id="Path_1771" data-name="Path 1771" d="M270.687,167.566a49.513,49.513,0,0,1-4.461-5.611,18.09,18.09,0,0,1-2.82-6.591,11.636,11.636,0,0,1-.062-3.619,9.358,9.358,0,0,1,1.229-3.414,7.45,7.45,0,0,1,2.589-2.555,7.23,7.23,0,0,1,7.049,0,7.443,7.443,0,0,1,2.589,2.555,9.351,9.351,0,0,1,1.228,3.415,11.587,11.587,0,0,1-.06,3.619,18.077,18.077,0,0,1-2.82,6.591,49.671,49.671,0,0,1-4.462,5.61m0,0a49.548,49.548,0,0,0,4.3-5.715,17.889,17.889,0,0,0,2.682-6.536,11.912,11.912,0,0,0,.022-3.516,8.993,8.993,0,0,0-1.2-3.277,7.076,7.076,0,0,0-2.468-2.414,6.976,6.976,0,0,0-6.673,0,7.061,7.061,0,0,0-2.469,2.413,8.991,8.991,0,0,0-1.2,3.278,11.879,11.879,0,0,0,.023,3.516,17.9,17.9,0,0,0,2.682,6.536,49.372,49.372,0,0,0,4.3,5.716" transform="translate(-128.161 -89.226)" fill="#263238"/>
            <path id="Path_1773" data-name="Path 1773" d="M168.15,221.754c-4.026-4.62-7.795-9.685-7.243-15.277.36-3.624,2.856-7.231,7.243-7.231s6.883,3.607,7.243,7.231c.558,5.592-3.216,10.657-7.243,15.277" transform="translate(-107.489 -100.207)" fill="#fff"/>
            <path id="Path_1774" data-name="Path 1774" d="M168.11,221.7a49.518,49.518,0,0,1-4.461-5.611,18.09,18.09,0,0,1-2.82-6.591,11.637,11.637,0,0,1-.062-3.619A9.358,9.358,0,0,1,162,202.468a7.45,7.45,0,0,1,2.589-2.555,7.23,7.23,0,0,1,7.05,0,7.45,7.45,0,0,1,2.589,2.555,9.351,9.351,0,0,1,1.228,3.415,11.589,11.589,0,0,1-.06,3.619,18.078,18.078,0,0,1-2.82,6.591,49.676,49.676,0,0,1-4.462,5.61m0,0a49.547,49.547,0,0,0,4.3-5.715,17.881,17.881,0,0,0,2.682-6.536,11.912,11.912,0,0,0,.022-3.516,8.994,8.994,0,0,0-1.2-3.277,7.077,7.077,0,0,0-2.468-2.414,6.976,6.976,0,0,0-6.673,0,7.061,7.061,0,0,0-2.468,2.413,8.99,8.99,0,0,0-1.2,3.278,11.879,11.879,0,0,0,.023,3.516,17.905,17.905,0,0,0,2.682,6.536,49.37,49.37,0,0,0,4.3,5.716" transform="translate(-107.449 -100.157)" fill="#263238"/>
            <path id="Path_1776" data-name="Path 1776" d="M257.58,355.052c-4.026-4.62-7.795-9.685-7.243-15.277.36-3.624,2.856-7.231,7.243-7.231s6.883,3.607,7.243,7.231c.558,5.592-3.216,10.657-7.243,15.277" transform="translate(-125.546 -127.122)" fill="#fff"/>
            <path id="Path_1777" data-name="Path 1777" d="M257.54,355a49.52,49.52,0,0,1-4.46-5.611,18.091,18.091,0,0,1-2.82-6.591,11.637,11.637,0,0,1-.062-3.619,9.359,9.359,0,0,1,1.229-3.414,7.45,7.45,0,0,1,2.589-2.555,7.23,7.23,0,0,1,7.049,0,7.429,7.429,0,0,1,2.589,2.555,9.337,9.337,0,0,1,1.228,3.415,11.587,11.587,0,0,1-.06,3.619,18.078,18.078,0,0,1-2.82,6.591A49.674,49.674,0,0,1,257.54,355m0,0a49.458,49.458,0,0,0,4.3-5.715,17.881,17.881,0,0,0,2.682-6.536,11.912,11.912,0,0,0,.022-3.516,8.994,8.994,0,0,0-1.2-3.277,7.077,7.077,0,0,0-2.468-2.414,6.975,6.975,0,0,0-6.672,0,7.064,7.064,0,0,0-2.469,2.413,8.99,8.99,0,0,0-1.2,3.278,11.88,11.88,0,0,0,.023,3.516,17.9,17.9,0,0,0,2.682,6.536,49.374,49.374,0,0,0,4.3,5.716" transform="translate(-125.506 -127.071)" fill="#263238"/>
            <g id="Group_3397" data-name="Group 3397" transform="translate(57.052 102.903)">
              <path id="Path_1778" data-name="Path 1778" d="M255.613,339.549h5.8l.709,6.425H254.9Z" transform="translate(-254.904 -336.85)" fill="#5e795e"/>
              <path id="Path_1779" data-name="Path 1779" d="M257.151,339.14a3.592,3.592,0,0,1,.54-2.452,1.542,1.542,0,0,1,1.211-.521,1.611,1.611,0,0,1,1.229.517,3.7,3.7,0,0,1,.663,2.437l-.707-.051a2.961,2.961,0,0,0-.476-1.905.981.981,0,0,0-1.386-.01,2.853,2.853,0,0,0-.37,1.9Z" transform="translate(-255.352 -336.167)" fill="#5e795e"/>
            </g>
            <path id="Path_1780" data-name="Path 1780" d="M163.017,317.854c-4.026-4.62-7.795-9.685-7.243-15.277.36-3.624,2.856-7.231,7.243-7.231s6.883,3.607,7.243,7.231c.558,5.592-3.216,10.657-7.243,15.277" transform="translate(-106.453 -119.611)" fill="#fff"/>
            <path id="Path_1781" data-name="Path 1781" d="M162.977,317.8a49.511,49.511,0,0,1-4.461-5.611,18.09,18.09,0,0,1-2.82-6.591,11.637,11.637,0,0,1-.062-3.619,9.359,9.359,0,0,1,1.229-3.414,7.443,7.443,0,0,1,2.589-2.555,7.23,7.23,0,0,1,7.05,0,7.443,7.443,0,0,1,2.589,2.555,9.352,9.352,0,0,1,1.228,3.415,11.589,11.589,0,0,1-.06,3.619,18.078,18.078,0,0,1-2.82,6.591,49.677,49.677,0,0,1-4.462,5.61m0,0a49.547,49.547,0,0,0,4.3-5.715,17.894,17.894,0,0,0,2.682-6.536,11.912,11.912,0,0,0,.022-3.516,8.993,8.993,0,0,0-1.2-3.277,7.076,7.076,0,0,0-2.468-2.414,6.975,6.975,0,0,0-6.672,0,7.057,7.057,0,0,0-2.469,2.413,8.991,8.991,0,0,0-1.2,3.278,11.881,11.881,0,0,0,.023,3.516,17.9,17.9,0,0,0,2.682,6.536,49.36,49.36,0,0,0,4.3,5.716" transform="translate(-106.413 -119.561)" fill="#263238"/>
            <path id="Path_1782" data-name="Path 1782" d="M167.924,303.293a3.94,3.94,0,0,1-2.575,3.869l-.049.018a5.115,5.115,0,0,1-2.943,0c-.018-.006-.034-.013-.049-.018a3.94,3.94,0,0,1-2.575-3.869,4.1,4.1,0,1,1,8.193,0" transform="translate(-107.262 -120.384)" fill="#5e795e"/>
            <path id="Path_1783" data-name="Path 1783" d="M165.963,309.206a4.487,4.487,0,0,1-2.943,0,5.115,5.115,0,0,0,2.943,0" transform="translate(-107.926 -122.41)" fill="#5e795e"/>
            <path id="Path_1784" data-name="Path 1784" d="M164.661,302.557v9.283a.163.163,0,0,0,.326,0v-9.283a.163.163,0,0,0-.326,0" transform="translate(-108.258 -121.035)" fill="#263238"/>
            <path id="Path_1785" data-name="Path 1785" d="M163.189,306.521l1.041,1.9.151.275c.1.184.382.019.281-.165l-1.041-1.9-.15-.275c-.1-.184-.382-.02-.282.164" transform="translate(-107.956 -121.818)" fill="#263238"/>
            <path id="Path_1786" data-name="Path 1786" d="M163.689,303.666l.646,1.181.093.171c.1.184.382.02.282-.164l-.646-1.181-.093-.171c-.1-.184-.382-.02-.282.164" transform="translate(-108.057 -121.241)" fill="#263238"/>
            <path id="Path_1787" data-name="Path 1787" d="M165.874,304.39l-1.041,1.9-.151.275c-.1.184.181.349.282.164l1.041-1.9.151-.275c.1-.184-.181-.349-.282-.164" transform="translate(-108.258 -121.421)" fill="#263238"/>
            <g id="noun-restaurant-4310994" transform="translate(127.373 209.595)">
              <path id="Path_2049" data-name="Path 2049" d="M144.473,17.5A4.476,4.476,0,0,0,140,21.971c0,3.408,4.182,6.538,4.36,6.67a.186.186,0,0,0,.221,0c.178-.132,4.36-3.262,4.36-6.67a4.476,4.476,0,0,0-4.471-4.471Zm0,7.824a3.357,3.357,0,1,1,2.37-.983,3.353,3.353,0,0,1-2.37.983Zm2.049-4.285a1.144,1.144,0,0,1-.559,1.024v1.584a.373.373,0,1,1-.745,0V22.063a1.144,1.144,0,0,1-.559-1.024.947.947,0,1,1,1.863,0Zm-2.235-.931V21.6a.559.559,0,0,1-.559.559v1.49a.373.373,0,1,1-.745,0v-1.49a.559.559,0,0,1-.559-.559v-1.49a.186.186,0,0,1,.373,0v.931h.373v-.931a.186.186,0,0,1,.373,0v.931h.373v-.931a.186.186,0,1,1,.373,0Z" transform="translate(-140.002 -17.5)" fill="#5e795e"/>
            </g>
            <g id="noun-restaurant-4310994-2" data-name="noun-restaurant-4310994" transform="translate(138.056 59.583)">
              <path id="Path_2049-2" data-name="Path 2049" d="M144.473,17.5A4.476,4.476,0,0,0,140,21.971c0,3.408,4.182,6.538,4.36,6.67a.186.186,0,0,0,.221,0c.178-.132,4.36-3.262,4.36-6.67a4.476,4.476,0,0,0-4.471-4.471Zm0,7.824a3.357,3.357,0,1,1,2.37-.983,3.353,3.353,0,0,1-2.37.983Zm2.049-4.285a1.144,1.144,0,0,1-.559,1.024v1.584a.373.373,0,1,1-.745,0V22.063a1.144,1.144,0,0,1-.559-1.024.947.947,0,1,1,1.863,0Zm-2.235-.931V21.6a.559.559,0,0,1-.559.559v1.49a.373.373,0,1,1-.745,0v-1.49a.559.559,0,0,1-.559-.559v-1.49a.186.186,0,0,1,.373,0v.931h.373v-.931a.186.186,0,0,1,.373,0v.931h.373v-.931a.186.186,0,1,1,.373,0Z" transform="translate(-140.002 -17.5)" fill="#5e795e"/>
            </g>
            <g id="noun-restaurant-4310994-3" data-name="noun-restaurant-4310994" transform="translate(113.549 14.017)">
              <path id="Path_2049-3" data-name="Path 2049" d="M144.473,17.5A4.476,4.476,0,0,0,140,21.971c0,3.408,4.182,6.538,4.36,6.67a.186.186,0,0,0,.221,0c.178-.132,4.36-3.262,4.36-6.67a4.476,4.476,0,0,0-4.471-4.471Zm0,7.824a3.357,3.357,0,1,1,2.37-.983,3.353,3.353,0,0,1-2.37.983Zm2.049-4.285a1.144,1.144,0,0,1-.559,1.024v1.584a.373.373,0,1,1-.745,0V22.063a1.144,1.144,0,0,1-.559-1.024.947.947,0,1,1,1.863,0Zm-2.235-.931V21.6a.559.559,0,0,1-.559.559v1.49a.373.373,0,1,1-.745,0v-1.49a.559.559,0,0,1-.559-.559v-1.49a.186.186,0,0,1,.373,0v.931h.373v-.931a.186.186,0,0,1,.373,0v.931h.373v-.931a.186.186,0,1,1,.373,0Z" transform="translate(-140.002 -17.5)" fill="#5e795e"/>
            </g>
          </g>
        </g>
      </g>
    </g>
    <g id="Group_3392" data-name="Group 3392" transform="translate(-1514.27 -115.28)">
      <g id="Group_3389" data-name="Group 3389" transform="translate(0)">
        <path id="Path_1975" data-name="Path 1975" d="M333.567,78.164c.586-2.177,2.225-3.25,4.36-3.977a7.031,7.031,0,0,1,6.415,1.042c1.2.912,2.141,2.241,3.565,2.736,2.347.816,5.1-.94,7.346.112a3.2,3.2,0,0,1-1.517,6.1,2.841,2.841,0,0,1,1.113,4.106,4.271,4.271,0,0,1-4.335,1.579A8.989,8.989,0,0,1,346.3,87.5c-1.212-1.089-2.3-2.322-3.594-3.311a7,7,0,0,0-4.494-1.652,6.406,6.406,0,0,0-5.077,3.757,16.4,16.4,0,0,0-1.332,6.436,27.149,27.149,0,0,1-.814,6.553c-.077.248-.193.524-.441.6-.358.11-.662-.27-.84-.6a32.391,32.391,0,0,1-3.7-12.042c-.25-2.443-.185-4.754,1.158-6.809s4.734-3.569,6.4-2.272" transform="translate(-270.195 -73.829)" fill="#263238"/>
        <path id="Path_1976" data-name="Path 1976" d="M330.5,89.979,329.375,114.7c-.191,4.2.386,10.419,7.047,10.419,5.779-.436,7.487-5.836,7.662-9.759.083-1.861.156-3.413.177-3.6,0,0,6.32-.305,7.059-6.513.357-3,.588-9.239.733-14.886a11.645,11.645,0,0,0-10.413-11.871l-.6-.064c-6.508-.31-10.407,5.043-10.537,11.557" transform="translate(-271.391 -75.418)" fill="#ffbe9d"/>
        <path id="Path_1977" data-name="Path 1977" d="M348.038,127.65a14.538,14.538,0,0,1-7.859-3.166s1.439,4.678,7.7,4.778Z" transform="translate(-275.149 -91.4)" fill="#eb996e"/>
        <path id="Path_1978" data-name="Path 1978" d="M360.713,103.3a.893.893,0,0,1-.952.8.854.854,0,0,1-.829-.9.893.893,0,0,1,.95-.805.855.855,0,0,1,.831.9" transform="translate(-281.654 -83.741)" fill="#263238"/>
        <path id="Path_1979" data-name="Path 1979" d="M359.709,100.555c-.122.1-.742-.465-1.7-.564s-1.707.3-1.8.176c-.046-.057.089-.255.417-.444a2.448,2.448,0,0,1,1.454-.284,2.348,2.348,0,0,1,1.336.594c.27.257.347.477.287.522" transform="translate(-280.709 -82.707)" fill="#263238"/>
        <path id="Path_1980" data-name="Path 1980" d="M346.315,102.274a.893.893,0,0,1-.952.8.854.854,0,0,1-.829-.9.893.893,0,0,1,.95-.805.855.855,0,0,1,.831.9" transform="translate(-276.659 -83.384)" fill="#263238"/>
        <path id="Path_1981" data-name="Path 1981" d="M345.3,99.3c-.123.1-.743-.464-1.7-.564s-1.706.3-1.8.176c-.045-.057.088-.254.418-.443a2.452,2.452,0,0,1,1.454-.285,2.354,2.354,0,0,1,1.336.594c.269.257.347.476.287.522" transform="translate(-275.711 -82.271)" fill="#263238"/>
        <path id="Path_1982" data-name="Path 1982" d="M351.317,107.059a6.365,6.365,0,0,1,1.581-.115c.247,0,.483-.023.541-.185a1.246,1.246,0,0,0-.086-.741l-.524-1.935a32.089,32.089,0,0,1-1.1-5.031,32.216,32.216,0,0,1,1.505,4.931q.258,1.016.492,1.942a1.423,1.423,0,0,1,.025.971.614.614,0,0,1-.439.313,1.642,1.642,0,0,1-.421.014,6.238,6.238,0,0,1-1.573-.165" transform="translate(-279.013 -82.578)" fill="#263238"/>
        <path id="Path_1983" data-name="Path 1983" d="M345.811,93.711c-.122.249-1.063.025-2.2.041-1.135-.007-2.074.225-2.2-.024-.055-.119.129-.346.521-.558a3.818,3.818,0,0,1,3.349-.013c.394.21.579.436.526.554" transform="translate(-275.575 -80.401)" fill="#263238"/>
        <path id="Path_1984" data-name="Path 1984" d="M359.765,96.239c-.192.2-.825-.1-1.616-.191-.786-.123-1.477-.01-1.607-.253-.055-.118.072-.323.388-.5a2.355,2.355,0,0,1,2.6.358c.256.253.324.486.239.584" transform="translate(-280.821 -81.193)" fill="#263238"/>
        <path id="Path_1985" data-name="Path 1985" d="M328.769,103.06c-.1-.057-4.137-1.718-4.454,2.547s4.03,3.7,4.047,3.58.407-6.127.407-6.127" transform="translate(-269.641 -83.842)" fill="#ffbe9d"/>
        <path id="Path_1986" data-name="Path 1986" d="M327.758,108.19c-.018-.015-.078.046-.208.095a.745.745,0,0,1-.556-.029,1.843,1.843,0,0,1-.728-1.712,2.459,2.459,0,0,1,.287-1.048.86.86,0,0,1,.6-.529.379.379,0,0,1,.423.236c.048.123.015.206.037.216s.1-.065.075-.244a.475.475,0,0,0-.148-.28.564.564,0,0,0-.4-.139,1.048,1.048,0,0,0-.825.6,2.528,2.528,0,0,0-.346,1.17,1.936,1.936,0,0,0,.947,1.922.8.8,0,0,0,.688-.063c.14-.1.17-.189.155-.2" transform="translate(-270.219 -84.556)" fill="#eb996e"/>
        <path id="Path_1987" data-name="Path 1987" d="M353.726,88.712a9.025,9.025,0,0,1-7.785-2.646c-1.375-1.442-2.346-3.409-4.179-4.195a5.083,5.083,0,0,0-3.917.118,9.8,9.8,0,0,0-3.213,2.379c.865,3.286-.317,6.727-1.484,9.92a1.7,1.7,0,0,1-.6.927,1.358,1.358,0,0,1-1.654-.555,5.276,5.276,0,0,1-.858-2.894,17.586,17.586,0,0,1,.775-6.888,11.97,11.97,0,0,1,3.91-5.659,11.338,11.338,0,0,1,8.227-2.147,13.926,13.926,0,0,1,7.726,3.727,8.162,8.162,0,0,1,2.289,3.283" transform="translate(-271.612 -74.923)" fill="#263238"/>
        <path id="Path_1988" data-name="Path 1988" d="M350.2,114.88a4.266,4.266,0,0,1-.55,1.078,1.432,1.432,0,0,1-1.018.591,1.286,1.286,0,0,1-1.087-.593,2.05,2.05,0,0,1-.3-1.236c.018-.39.2-.856.583-.9a.972.972,0,0,1,.47.1l2.037.826" transform="translate(-277.597 -87.699)" fill="#eb996e"/>
        <path id="Path_1989" data-name="Path 1989" d="M349.239,116.444a2.952,2.952,0,0,1-1.086-.135,1.548,1.548,0,0,1-.821-.746,1.633,1.633,0,0,1-.027-1.332,1.483,1.483,0,0,1,.178-.3c.081-.085.066-.081.153-.068s.217.085.327.128l.334.136c.436.176.83.33,1.164.455a3.7,3.7,0,0,0,1.109.334,3.731,3.731,0,0,0-1.008-.57c-.321-.155-.7-.334-1.134-.526l-.329-.148a3.617,3.617,0,0,0-.372-.153.477.477,0,0,0-.3.009.552.552,0,0,0-.225.177,1.74,1.74,0,0,0-.229.387,1.908,1.908,0,0,0,.063,1.629,1.741,1.741,0,0,0,1.033.836,1.646,1.646,0,0,0,.882.034c.2-.054.3-.122.289-.142" transform="translate(-277.452 -87.588)" fill="#263238"/>
        <path id="Path_1990" data-name="Path 1990" d="M402.2,387.241l4.757,13.809s15.634-.2,16.762,2.268L397.276,413.5l-8.3-21.212Z" transform="translate(-292.078 -182.545)" fill="#5e795e"/>
        <path id="Path_1991" data-name="Path 1991" d="M403.074,411.346a1.158,1.158,0,0,0-.272,1.52,1.113,1.113,0,0,0,1.5.283,1.221,1.221,0,0,0,.28-1.611,1.154,1.154,0,0,0-1.6-.12" transform="translate(-296.811 -190.838)" fill="#e0e0e0"/>
        <g id="Group_3368" data-name="Group 3368" transform="translate(104.447 219.833)" opacity="0.6">
          <g id="Group_3367" data-name="Group 3367">
            <g id="Group_3366" data-name="Group 3366" clip-path="url(#clip-path-2)">
              <path id="Path_1992" data-name="Path 1992" d="M401.283,421.544l-.752-2.171,25.635-8.954s1.374.059,1.561.939Z" transform="translate(-400.531 -410.419)" fill="#fff"/>
            </g>
          </g>
        </g>
        <path id="Path_1993" data-name="Path 1993" d="M416.076,407.9c.046.131-.577.438-1.053,1.1-.493.648-.6,1.333-.743,1.328-.129.021-.234-.826.356-1.615s1.422-.94,1.44-.811" transform="translate(-300.819 -189.698)" fill="#263238"/>
        <path id="Path_1994" data-name="Path 1994" d="M421.372,408.033c.078.114-.4.549-.625,1.264-.25.709-.133,1.342-.263,1.385-.114.067-.494-.654-.193-1.538s1.031-1.233,1.082-1.111" transform="translate(-302.899 -189.75)" fill="#263238"/>
        <path id="Path_1995" data-name="Path 1995" d="M426.121,410.813c-.106.072-.535-.5-.475-1.338s.554-1.349.651-1.262c.114.078-.132.609-.17,1.3-.054.684.119,1.244,0,1.306" transform="translate(-304.794 -189.816)" fill="#263238"/>
        <path id="Path_1996" data-name="Path 1996" d="M413.455,403.21c-.008.138-.67.189-1.381.519s-1.191.78-1.3.7c-.11-.065.26-.756,1.1-1.134s1.6-.206,1.579-.08" transform="translate(-299.63 -188.032)" fill="#263238"/>
        <path id="Path_1997" data-name="Path 1997" d="M253.718,384.461l-.3.388L247.7,392.32l-7.088,4.86,9.49,18.282,10.45.011s-.754-2.512-5.782-3.812l-.33-10.035,9.026-9.915" transform="translate(-240.611 -181.581)" fill="#5e795e"/>
        <g id="Group_3371" data-name="Group 3371" transform="translate(0 214.565)" opacity="0.6">
          <g id="Group_3370" data-name="Group 3370">
            <g id="Group_3369" data-name="Group 3369" clip-path="url(#clip-path-3)">
              <path id="Path_1998" data-name="Path 1998" d="M240.611,403.386l9.49,18.282,10.45.012-1.176-1.572-8.5-.476-8.76-17.28Z" transform="translate(-240.611 -402.352)" fill="#fff"/>
            </g>
          </g>
        </g>
        <path id="Path_1999" data-name="Path 1999" d="M260.607,418.71c-.078.107-.68-.236-1.488-.214-.809,0-1.4.358-1.482.253-.1-.079.491-.7,1.475-.713s1.59.592,1.494.673" transform="translate(-246.513 -193.228)" fill="#263238"/>
        <path id="Path_2000" data-name="Path 2000" d="M260.355,414.622c-.1.074-.57-.543-1.4-.706s-1.5.217-1.567.109c-.035-.047.085-.222.379-.382a1.955,1.955,0,0,1,2.39.481c.209.261.252.468.2.5" transform="translate(-246.427 -191.629)" fill="#263238"/>
        <path id="Path_2001" data-name="Path 2001" d="M260.642,409.652c-.114.057-.47-.547-1.2-.8s-1.381-.016-1.434-.132c-.028-.053.1-.2.394-.306a1.812,1.812,0,0,1,2.125.751c.157.266.168.462.114.486" transform="translate(-246.645 -189.856)" fill="#263238"/>
        <path id="Path_2002" data-name="Path 2002" d="M265.067,405.659c-.124.044-.417-.551-1.067-.971-.636-.439-1.3-.483-1.3-.615-.035-.121.774-.3,1.56.232s.936,1.34.811,1.353" transform="translate(-248.272 -188.34)" fill="#263238"/>
        <path id="Path_2004" data-name="Path 2004" d="M313.96,267.048l32.31,47.352,17.466,41.406,14.793-7.909L363.574,306.43,341.6,262.87Z" transform="translate(-266.054 -139.403)" fill="#263238"/>
        <path id="Path_2005" data-name="Path 2005" d="M278.954,262.87l-5.393,38.121-22.054,48.1,13.136,7.638,28.05-47.674,15.57-46.181Z" transform="translate(-244.391 -139.403)" fill="#263238"/>
        <path id="Path_2006" data-name="Path 2006" d="M271.62,358.945a1.436,1.436,0,0,1,.114-.231l.366-.66,1.434-2.52c1.267-2.2,3.085-5.35,5.328-9.239l17.687-30.417,3.3-5.652-.014.032c3.847-11.583,7.25-21.831,9.7-29.2l2.912-8.655.8-2.329.215-.6a.109.109,0,1,1,.031.01l-.186.611-.744,2.348-2.813,8.687c-2.422,7.382-5.788,17.641-9.592,29.239l-.005.017-.009.015-3.3,5.654-17.773,30.366-5.421,9.185-1.489,2.488-.395.643a1.417,1.417,0,0,1-.144.213" transform="translate(-251.367 -141.622)" fill="#455a64"/>
        <path id="Path_2007" data-name="Path 2007" d="M334.347,194.356,333.257,178l-4.143-38.568,1.471-8.044-16.328-6.531-1.959,3.919c-9.807,1.475-13.932,20.829-13.932,20.829l-.342,39.349-10.885,26.677,2.824,2.49c4.46,2.676,46.019.99,46.019.99Z" transform="translate(-256.751 -91.528)" fill="#5e795e"/>
        <g id="Group_3377" data-name="Group 3377" transform="translate(34.564 105.543)" opacity="0.3">
          <g id="Group_3376" data-name="Group 3376" transform="translate(0 0)">
            <g id="Group_3375" data-name="Group 3375" clip-path="url(#clip-path-4)">
              <path id="Path_2008" data-name="Path 2008" d="M293.532,243.748a51.3,51.3,0,0,0,9.861,9.539c2.028,1.521,4.43,2.965,6.933,2.566,2.424-.387,4.222-2.382,5.809-4.254l8.931-10.533a4.318,4.318,0,0,0,1.152-2.006,2.792,2.792,0,0,0-1.25-2.585,6.085,6.085,0,0,0-2.844-.933c-6.271-.742-12.4,2.371-18.711,2.426-2.158.018-5.669-.411-7.708.3Z" transform="translate(-293.532 -235.427)"/>
            </g>
          </g>
        </g>
        <path id="Path_2009" data-name="Path 2009" d="M312.6,194.086a9.654,9.654,0,0,1,1.208,12.334l-5.582,8.171-8.1,10.555a6.373,6.373,0,0,1-9.526.661l-36.961-28.476a5.523,5.523,0,0,1-1.129-7.578l15.048-21.15a5.523,5.523,0,0,1,7.72-1.286Z" transform="translate(-244.381 -105.899)" fill="#455a64"/>
        <path id="Path_2010" data-name="Path 2010" d="M302.357,228.883a1,1,0,0,1,.1-.2l.324-.556c.3-.481.74-1.187,1.326-2.086,1.17-1.8,2.9-4.38,5.044-7.561s4.723-6.954,7.515-11.185a27.757,27.757,0,0,0,1.967-3.327,4.18,4.18,0,0,0,.415-1.872,3.188,3.188,0,0,0-.7-1.788,15.4,15.4,0,0,0-3.2-2.631l-3.534-2.511L287.2,177.76l-7.375-5.309-2-1.457-.514-.386a1,1,0,0,1-.169-.141,1.042,1.042,0,0,1,.188.113l.534.359,2.033,1.4,7.438,5.22,24.471,17.331,3.533,2.512a15.554,15.554,0,0,1,3.27,2.705,3.515,3.515,0,0,1,.766,1.973,4.5,4.5,0,0,1-.447,2.02,27.863,27.863,0,0,1-2,3.368c-2.81,4.228-5.412,7.982-7.579,11.148-4.358,6.316-6.993,10.262-6.993,10.262" transform="translate(-253.284 -107.35)" fill="#263238"/>
        <path id="Path_2011" data-name="Path 2011" d="M323.232,132.591s-10.493-5.555-26.345,19.584l2.81,3.278s13.236-23.273,21.986-20.461-4.094,39.508-4.094,39.508,19.235-36.584,5.644-41.91" transform="translate(-260.132 -94.031)" fill="#263238"/>
        <path id="Path_2012" data-name="Path 2012" d="M281.432,162.236a13.664,13.664,0,0,0-1.836,16.941q.18.276.364.533l14.263,22.168,11.951-7.368-11.569-21s5.378-5.552,11.23-11.8c7.883-8.413,16.279-18.743,10.264-24.675,0,0-4.1-3.244-10.4,1.63-4.556,3.526-17.469,16.6-24.269,23.568" transform="translate(-253.393 -95.388)" fill="#5e795e"/>
        <path id="Path_2013" data-name="Path 2013" d="M393.507,149.576l6.225-1.548s1.682,1.509.814,3.068a59.621,59.621,0,0,0-2.335,5.5L393.4,158.15l-1.356,3.9-8.285-3.533,2.209-7.333,4.644-5.749,3.5-.532,2.36,2s-1.966,1.433-3.292-.11l-1.609.618.146.968a1.458,1.458,0,0,0,1.794,1.2" transform="translate(-290.266 -98.484)" fill="#ffbe9d"/>
        <path id="Path_2014" data-name="Path 2014" d="M408.165,148.981,412.238,147a1.658,1.658,0,0,1,1.533.3l.2.421L409.1,150.91Z" transform="translate(-298.732 -99.187)" fill="#ffbe9d"/>
        <path id="Path_2015" data-name="Path 2015" d="M395.056,155.953a4.316,4.316,0,0,1,.419-1.035,5.819,5.819,0,0,0,.617-2.515,2.935,2.935,0,0,0-.359-1.343,3.981,3.981,0,0,1-.281-.607,1.763,1.763,0,0,1-.074-.6,2.951,2.951,0,0,1,.138-1.119,5.057,5.057,0,0,1,.1,1.11,2.009,2.009,0,0,0,.39,1.062,3.048,3.048,0,0,1,.424,1.482,5.175,5.175,0,0,1-.741,2.633,3.246,3.246,0,0,1-.635.928" transform="translate(-294.183 -99.813)" fill="#eb996e"/>
        <path id="Path_2016" data-name="Path 2016" d="M413.262,137.047c.056.116.9,1.372.9,1.372L395.6,152.077,394.44,150.6Z" transform="translate(-293.971 -95.758)" fill="#263238"/>
        <path id="Path_2017" data-name="Path 2017" d="M402.7,161.42a1.025,1.025,0,0,0-.31-1.439,2.906,2.906,0,0,0-1.6-.364,11.914,11.914,0,0,0-2.716.148,1.79,1.79,0,0,0-.821.34.751.751,0,0,0-.26.8c.13.341.537.47.895.541a12.71,12.71,0,0,0,2.926.231" transform="translate(-294.844 -103.582)" fill="#ffbe9d"/>
        <path id="Path_2018" data-name="Path 2018" d="M400.727,161.591a5.235,5.235,0,0,1-1.748.065c-.27-.02-.566-.05-.882-.1a2.622,2.622,0,0,1-1.021-.3.78.78,0,0,1-.362-.552.908.908,0,0,1,.189-.651,1.787,1.787,0,0,1,1.157-.566,10.755,10.755,0,0,1,2.336-.125,3.683,3.683,0,0,1,1.895.378,1.217,1.217,0,0,1,.57,1.176c-.062.328-.244.428-.248.414-.026-.018.1-.146.116-.428a1.1,1.1,0,0,0-.564-.957,3.675,3.675,0,0,0-1.776-.269,11.8,11.8,0,0,0-2.267.146,1.507,1.507,0,0,0-.954.432.484.484,0,0,0,.083.743,2.49,2.49,0,0,0,.893.28c.306.059.594.1.858.136,1.056.133,1.722.121,1.724.174" transform="translate(-294.758 -103.496)" fill="#eb996e"/>
        <path id="Path_2019" data-name="Path 2019" d="M404.925,156.025c-1.481-.364-2.541-.51-4.022-.875a2.362,2.362,0,0,0-1.465-.042c-.458.193-.746.839-.41,1.2a1.174,1.174,0,0,0,.453.262l4.427,1.738" transform="translate(-295.512 -101.987)" fill="#ffbe9d"/>
        <path id="Path_2020" data-name="Path 2020" d="M403.82,158.225a9.57,9.57,0,0,1-1.729-.549l-1.841-.684-1.09-.421a.837.837,0,0,1-.509-.53.965.965,0,0,1,.133-.737,1.1,1.1,0,0,1,.566-.464,1.681,1.681,0,0,1,.671-.086,6.858,6.858,0,0,1,1.164.236l1.91.441a7.771,7.771,0,0,1,1.743.506,12.467,12.467,0,0,1-1.791-.27c-.551-.1-1.208-.21-1.934-.372a7.106,7.106,0,0,0-1.11-.208.953.953,0,0,0-.929.394.638.638,0,0,0-.1.471.506.506,0,0,0,.321.315l1.066.433,1.815.751a9.636,9.636,0,0,1,1.641.773" transform="translate(-295.423 -101.899)" fill="#eb996e"/>
        <path id="Path_2021" data-name="Path 2021" d="M406.421,152.589c-1.5-.268-2.511-.457-4.012-.725a2.364,2.364,0,0,0-1.464.052c-.445.221-.692.885-.332,1.229a1.178,1.178,0,0,0,.469.233l4.53,1.45" transform="translate(-296.053 -100.866)" fill="#ffbe9d"/>
        <path id="Path_2022" data-name="Path 2022" d="M405.523,154.739a9.538,9.538,0,0,1-1.755-.436l-1.876-.562-1.11-.348a.845.845,0,0,1-.549-.481.938.938,0,0,1,.066-.745,1.1,1.1,0,0,1,.522-.509,1.659,1.659,0,0,1,.661-.138,6.077,6.077,0,0,1,1.176.158l1.921.384a9.528,9.528,0,0,1,1.754.439,9.553,9.553,0,0,1-1.8-.2l-1.933-.312a6.285,6.285,0,0,0-1.114-.134.938.938,0,0,0-.887.468c-.436.8.767.853,1.386,1.122l1.853.632a9.575,9.575,0,0,1,1.682.664" transform="translate(-295.964 -100.778)" fill="#eb996e"/>
        <path id="Path_2023" data-name="Path 2023" d="M378.3,161.135l-12.077,25.815a7.9,7.9,0,0,1-14.392-.186l-9.016-20.642,5.123-22.27,12.109,25.978,9.9-14.033Z" transform="translate(-276.064 -98.118)" fill="#5e795e"/>
        <path id="Path_2024" data-name="Path 2024" d="M363.752,192.2a33.988,33.988,0,0,1,1.56-4.543,33.942,33.942,0,0,1,1.878-4.422,34.116,34.116,0,0,1-1.561,4.544,34.067,34.067,0,0,1-1.878,4.421" transform="translate(-283.324 -111.779)" fill="#263238"/>
        <path id="Path_2025" data-name="Path 2025" d="M356.891,201.764a3.522,3.522,0,0,1-.069-.544q-.054-.593-.147-1.6c-.121-1.42-.291-3.419-.5-5.875l-1.682-19.381c-.686-7.568-1.366-14.412-1.911-19.361-.28-2.449-.507-4.442-.669-5.857q-.117-1-.185-1.593a3.62,3.62,0,0,1-.044-.558,3.393,3.393,0,0,1,.112.549q.092.588.248,1.584c.2,1.377.475,3.375.777,5.847.606,4.943,1.324,11.788,2.01,19.358s1.226,14.426,1.584,19.393c.164,2.46.3,4.462.393,5.885q.052,1.007.083,1.6a2.522,2.522,0,0,1,0,.549" transform="translate(-279.139 -99.209)" fill="#263238"/>
        <path id="Path_2026" data-name="Path 2026" d="M313.786,227.865l1.574,3.289a21.121,21.121,0,0,1,4.416.978c1.292.6,5.935,4.638,5.935,4.638a1.533,1.533,0,0,1-1.771.82A23.6,23.6,0,0,1,321,235.618a1.562,1.562,0,0,0-1.043,2.407c.923,1.385,1.99,3,2.091,3.234a18.357,18.357,0,0,0,3.7,1.737,1.041,1.041,0,0,1-.159,1.974.487.487,0,0,1-.276-.031s.743,1.565-1.965,1.114c0,0-1.791,1.221-3.181.467a9.933,9.933,0,0,1-3.682.2c-1.129-.376-5.817-6.981-5.817-6.981l-4.072-7.385Z" transform="translate(-263.498 -127.261)" fill="#ffbe9d"/>
        <path id="Path_2027" data-name="Path 2027" d="M324.088,245.993a4.871,4.871,0,0,0,.534,1.323,7.4,7.4,0,0,0,2.119,2.709,6.639,6.639,0,0,0,3.226,1.077,4.542,4.542,0,0,0,1.4.022,6.272,6.272,0,0,0-1.364-.282,7.427,7.427,0,0,1-3.054-1.121,8.385,8.385,0,0,1-2.106-2.535,6.405,6.405,0,0,0-.757-1.193" transform="translate(-269.566 -133.549)" fill="#eb996e"/>
        <path id="Path_2028" data-name="Path 2028" d="M322.042,248.324a2.73,2.73,0,0,0,.425,1.237,9.358,9.358,0,0,0,.741,1.2,4.316,4.316,0,0,0,1.253,1.229,7.272,7.272,0,0,0,1.613.6l1.328.35a4.376,4.376,0,0,0,1.25.237,4.414,4.414,0,0,0-1.176-.489c-.368-.128-.814-.277-1.308-.427a8.3,8.3,0,0,1-1.529-.6,4.4,4.4,0,0,1-1.167-1.116,12.975,12.975,0,0,1-.783-1.127c-.418-.665-.6-1.119-.646-1.1" transform="translate(-268.854 -134.357)" fill="#eb996e"/>
        <path id="Path_2029" data-name="Path 2029" d="M319.9,251.2a10.043,10.043,0,0,0,1.8,2.615,1.387,1.387,0,0,0,.58.411,4.685,4.685,0,0,0,.568.215,5.711,5.711,0,0,0,.992.219c.577.073.94,0,.936-.047a4.765,4.765,0,0,0-.888-.211,8.816,8.816,0,0,1-.932-.286,5.524,5.524,0,0,1-.525-.22,1.122,1.122,0,0,1-.445-.312c-.549-.693-1.065-1.285-1.443-1.716a3.894,3.894,0,0,0-.645-.669" transform="translate(-268.11 -135.356)" fill="#eb996e"/>
        <path id="Path_2030" data-name="Path 2030" d="M348.533,133.291a21.884,21.884,0,0,1-.484,3.224,21.842,21.842,0,0,1-.628,3.2,20.036,20.036,0,0,1,1.112-6.425" transform="translate(-277.649 -94.455)" fill="#263238"/>
        <path id="Path_2031" data-name="Path 2031" d="M341.456,134.431a10.377,10.377,0,0,1,1.14-3.564,10.377,10.377,0,0,1-1.14,3.564" transform="translate(-275.584 -93.614)" fill="#263238"/>
        <path id="Path_2032" data-name="Path 2032" d="M335.8,131.9a8.984,8.984,0,0,1,1.588-3.1,9.012,9.012,0,0,1-1.588,3.1" transform="translate(-273.624 -92.897)" fill="#263238"/>
        <path id="Path_2033" data-name="Path 2033" d="M328.375,130.7a16.345,16.345,0,0,1,2.849-3.739,16.344,16.344,0,0,1-2.849,3.739" transform="translate(-271.053 -92.259)" fill="#263238"/>
        <path id="Path_2034" data-name="Path 2034" d="M299.327,192.275a11.739,11.739,0,0,1-1.082-.789,9.833,9.833,0,0,0-6.016-1.774,11.629,11.629,0,0,1-1.337.075,3.493,3.493,0,0,1,1.32-.315,8.572,8.572,0,0,1,6.177,1.822,3.5,3.5,0,0,1,.938.981" transform="translate(-258.052 -113.927)" fill="#263238"/>
        <path id="Path_2035" data-name="Path 2035" d="M298.432,181.006a4,4,0,0,1,1.05.926,10.9,10.9,0,0,1,2.734,6.1,4.014,4.014,0,0,1-.007,1.4,14.326,14.326,0,0,0-3.777-8.425" transform="translate(-260.667 -111.006)" fill="#263238"/>
        <path id="Path_2036" data-name="Path 2036" d="M315.281,202.345a2.661,2.661,0,0,1-.256-.4l-.684-1.169-2.486-4.362c-2.1-3.742-5-8.913-8.28-14.757l-.06-.108.086-.09,2.535-2.67,13.408-14.036,4.091-4.226,1.125-1.137a3.368,3.368,0,0,1,.409-.38,3.513,3.513,0,0,1-.359.428l-1.079,1.181-4.013,4.3-13.336,14.1-2.537,2.667.025-.2,8.181,14.811,2.4,4.411.633,1.2a2.7,2.7,0,0,1,.2.426" transform="translate(-262.431 -103.378)" fill="#263238"/>
        <g id="Group_3380" data-name="Group 3380" transform="translate(46.592 58.284)" opacity="0.3">
          <g id="Group_3379" data-name="Group 3379" transform="translate(0 0)">
            <g id="Group_3378" data-name="Group 3378" clip-path="url(#clip-path-5)">
              <path id="Path_2037" data-name="Path 2037" d="M311.949,177.409l4.661,3.342a5.058,5.058,0,0,0,1.693-1.439,48.4,48.4,0,0,0,7.55-16.244Z" transform="translate(-311.949 -163.068)"/>
            </g>
          </g>
        </g>
        <path id="Path_2038" data-name="Path 2038" d="M315.72,167.685a6.557,6.557,0,0,0-.759-2.477,7.113,7.113,0,0,0-1.848-2.1,12.349,12.349,0,0,0-3.037-1.654c-1.149-.463-2.292-.78-3.31-1.189a6.281,6.281,0,0,1-2.435-1.589,3.58,3.58,0,0,1-.889-1.75,1.472,1.472,0,0,1,0-.719c.031,0,.016.257.127.692a3.72,3.72,0,0,0,.937,1.615,6.288,6.288,0,0,0,2.373,1.46c1,.383,2.153.694,3.32,1.165a12.026,12.026,0,0,1,3.106,1.724,7.035,7.035,0,0,1,1.866,2.231,5.173,5.173,0,0,1,.571,1.875,1.921,1.921,0,0,1-.024.717" transform="translate(-262.393 -102.404)" fill="#f5f5f5"/>
        <path id="Path_2039" data-name="Path 2039" d="M344.922,175.349a6.275,6.275,0,0,1-.87-.059,16.46,16.46,0,0,0-2.362.014c-1,.071-2.176.24-3.488.442a29.147,29.147,0,0,1-4.32.418,10.058,10.058,0,0,1-4.277-.835,6.816,6.816,0,0,1-2.717-2.3,4.881,4.881,0,0,1-.842-2.247,3.318,3.318,0,0,1,0-.654c.014-.148.027-.225.039-.225.037,0,0,.315.091.862a5.086,5.086,0,0,0,.908,2.127,6.776,6.776,0,0,0,2.652,2.154,10.05,10.05,0,0,0,4.145.779,31.645,31.645,0,0,0,4.275-.389c1.315-.184,2.509-.33,3.519-.372a13.156,13.156,0,0,1,2.39.094,3.27,3.27,0,0,1,.856.191" transform="translate(-270.242 -107.155)" fill="#f5f5f5"/>
        <path id="Path_2040" data-name="Path 2040" d="M359.161,168.927a7.076,7.076,0,0,1-4.719,3.5c-.035-.1,1.236-.534,2.537-1.509s2.1-2.051,2.182-1.989" transform="translate(-280.096 -106.815)" fill="#f5f5f5"/>
        <path id="Path_2041" data-name="Path 2041" d="M361.268,175.666A9.655,9.655,0,0,1,355.149,180a29.168,29.168,0,0,0,3.3-1.826,29.1,29.1,0,0,0,2.818-2.507" transform="translate(-280.342 -109.153)" fill="#f5f5f5"/>
        <path id="Path_2042" data-name="Path 2042" d="M342.4,185.956a9.966,9.966,0,0,0-3.8-1.181,27.529,27.529,0,0,0-4.354.012,29.9,29.9,0,0,1-5.385-.034,24.083,24.083,0,0,1-9.267-3.006,22.341,22.341,0,0,1-2.469-1.641,6.356,6.356,0,0,1-.822-.712,6.959,6.959,0,0,1,.9.6,29.069,29.069,0,0,0,2.508,1.538,25.227,25.227,0,0,0,9.187,2.877,31.288,31.288,0,0,0,5.331.059,25.614,25.614,0,0,1,4.4.063,8.809,8.809,0,0,1,2.852.832,4.571,4.571,0,0,1,.694.414c.152.105.228.165.221.174" transform="translate(-266.869 -110.447)" fill="#f5f5f5"/>
        <path id="Path_2043" data-name="Path 2043" d="M310.783,172.31a1.506,1.506,0,0,1-.14.452l-.046.121-.051-.123a4.778,4.778,0,0,0-2.112-2.173,10.428,10.428,0,0,0-2.238-.889c-.845-.251-1.776-.467-2.72-.807a12.409,12.409,0,0,1-5.169-3.595,10.769,10.769,0,0,1-1.115-1.563,2.456,2.456,0,0,1-.306-.633c.056-.035.525.856,1.6,2.036a13.015,13.015,0,0,0,5.105,3.434c.918.331,1.842.553,2.7.818a10.035,10.035,0,0,1,2.283.962,4.473,4.473,0,0,1,2.072,2.371l-.1,0c.143-.286.219-.417.236-.41" transform="translate(-260.131 -104.795)" fill="#f5f5f5"/>
      </g>
      <g id="Group_3391" data-name="Group 3391" transform="translate(103.321 6.818)">
        <path id="Path_2045" data-name="Path 2045" d="M397.033,98.252l-2.372-5.286a13.5,13.5,0,1,1,4.813-.48h.007Z" transform="translate(-382.283 -66.055)" fill="#fff"/>
        <path id="Path_2047" data-name="Path 2047" d="M409.8,86.3a5.071,5.071,0,1,0-9.441,2.562h0l.014.019c.195.328.438.562.684.907l2.944,3.9a.915.915,0,0,0,1.461,0l2.895-3.835a11,11,0,0,0,.737-.976l.01-.014h0a5.04,5.04,0,0,0,.7-2.562m-5.071,2.208a2.231,2.231,0,1,1,2.231-2.231,2.232,2.232,0,0,1-2.231,2.231" transform="translate(-391.263 -73.981)" fill="#5e795e" opacity="0"/>
        <g id="noun-restaurant-4310994-4" data-name="noun-restaurant-4310994" transform="translate(6.438 4.86)">
          <path id="Path_2049-4" data-name="Path 2049" d="M147.043,17.5A7.049,7.049,0,0,0,140,24.541c0,5.367,6.586,10.3,6.867,10.5a.293.293,0,0,0,.349,0c.281-.207,6.866-5.137,6.866-10.5a7.049,7.049,0,0,0-7.041-7.041Zm0,12.321a5.286,5.286,0,1,1,3.732-1.548,5.281,5.281,0,0,1-3.732,1.548Zm3.227-6.747a1.8,1.8,0,0,1-.88,1.612v2.495a.587.587,0,1,1-1.173,0V24.686a1.8,1.8,0,0,1-.88-1.612,1.491,1.491,0,1,1,2.934,0Zm-3.52-1.467v2.347a.881.881,0,0,1-.88.88v2.347a.587.587,0,1,1-1.173,0V24.834a.881.881,0,0,1-.88-.88V21.607a.293.293,0,0,1,.587,0v1.467h.587V21.607a.293.293,0,0,1,.587,0v1.467h.587V21.607a.293.293,0,1,1,.587,0Z" transform="translate(-140.002 -17.5)" fill="#5e795e"/>
        </g>
      </g>
    </g>
  </g>
</svg>
